<svg width="521" height="500" viewBox="0 0 521 500" fill="none" xmlns="http://www.w3.org/2000/svg">
<g clip-path="url(#clip0_40_187)">
<rect width="521" height="500" fill="#072F38"/>
<g opacity="0.3">
<path d="M415.295 24.5428C377.97 40.7501 358.124 89.1459 371.003 132.55C383.882 175.955 364.036 224.35 326.711 240.558C289.386 256.765 269.539 305.161 282.418 348.565C295.298 391.969 275.451 440.365 238.126 456.573C200.801 472.78 180.723 520.393 193.602 563.797L554.516 563.797L554.516 -191.18L513.832 -191.18C506.809 -191.18 499.806 -189.981 493.903 -186.26C462.793 -166.654 447.826 -123.1 459.587 -83.4646C472.467 -40.0602 452.62 8.33553 415.295 24.5428Z" fill="#EBFACF"/>
</g>
</g>
<defs>
<clipPath id="clip0_40_187">
<rect width="521" height="500" fill="white"/>
</clipPath>
</defs>
</svg>
