<svg width="521" height="500" viewBox="0 0 521 500" fill="none" xmlns="http://www.w3.org/2000/svg">
<g clip-path="url(#clip0_40_188)">
<rect width="521" height="500" fill="#072F38"/>
<path opacity="0.4" d="M-0.1341 380.509C-0.1341 377.819 -2.3127 375.638 -5 375.638V341C16.7973 341 34.4675 358.689 34.4675 380.509V452.491C34.4675 455.181 36.646 457.362 39.3333 457.362C42.0207 457.362 44.1992 455.181 44.1992 452.491V380.509C44.1992 358.689 61.8694 341 83.667 341C105.464 341 123.134 358.689 123.134 380.509V452.491C123.134 455.181 125.313 457.362 128 457.362C130.687 457.362 132.866 455.181 132.866 452.491V380.509C132.866 358.689 150.536 341 172.333 341C194.131 341 211.801 358.689 211.801 380.509V452.491C211.801 455.181 213.979 457.362 216.667 457.362C219.354 457.362 221.533 455.181 221.533 452.491V380.509C221.533 358.689 239.203 341 261 341V375.638C258.313 375.638 256.134 377.819 256.134 380.509V452.491C256.134 474.311 238.464 492 216.667 492C194.869 492 177.199 474.311 177.199 452.491V380.509C177.199 377.819 175.021 375.638 172.333 375.638C169.646 375.638 167.467 377.819 167.467 380.509V452.491C167.467 474.311 149.797 492 128 492C106.203 492 88.533 474.311 88.533 452.491V380.509C88.533 377.819 86.354 375.638 83.667 375.638C80.979 375.638 78.801 377.819 78.801 380.509V452.491C78.801 474.311 61.1306 492 39.3333 492C17.536 492 -0.1341 474.311 -0.1341 452.491V380.509Z" fill="#EBFACF"/>
<path opacity="0.4" d="M265.866 380.509C265.866 377.819 263.687 375.638 261 375.638V341C282.797 341 300.467 358.689 300.467 380.509V452.491C300.467 455.181 302.646 457.362 305.333 457.362C308.021 457.362 310.199 455.181 310.199 452.491V380.509C310.199 358.689 327.869 341 349.667 341C371.464 341 389.134 358.689 389.134 380.509V452.491C389.134 455.181 391.313 457.362 394 457.362C396.687 457.362 398.866 455.181 398.866 452.491V380.509C398.866 358.689 416.536 341 438.333 341C460.131 341 477.801 358.689 477.801 380.509V452.491C477.801 455.181 479.979 457.362 482.667 457.362C485.354 457.362 487.533 455.181 487.533 452.491V380.509C487.533 358.689 505.203 341 527 341V375.638C524.313 375.638 522.134 377.819 522.134 380.509V452.491C522.134 474.311 504.464 492 482.667 492C460.869 492 443.199 474.311 443.199 452.491V380.509C443.199 377.819 441.021 375.638 438.333 375.638C435.646 375.638 433.467 377.819 433.467 380.509V452.491C433.467 474.311 415.797 492 394 492C372.203 492 354.533 474.311 354.533 452.491V380.509C354.533 377.819 352.354 375.638 349.667 375.638C346.979 375.638 344.801 377.819 344.801 380.509V452.491C344.801 474.311 327.131 492 305.333 492C283.536 492 265.866 474.311 265.866 452.491V380.509Z" fill="#EBFACF"/>
</g>
<defs>
<clipPath id="clip0_40_188">
<rect width="521" height="500" fill="white"/>
</clipPath>
</defs>
</svg>
