<svg width="1000" height="100" viewBox="0 0 1000 100" fill="none" xmlns="http://www.w3.org/2000/svg">
<path fill-rule="evenodd" clip-rule="evenodd" d="M266.534 58.8897C223.572 67.9265 173.969 76.9199 126.251 79.1655C85.4661 81.0822 46.0713 78.1052 13.8261 65.4389C9.2807 63.6555 3.5886 64.8815 1.1304 68.182C-1.33155 71.4797 0.362193 75.6095 4.90762 77.3957C40.0832 91.2092 82.9742 94.8223 127.462 92.729C176.037 90.4453 226.536 81.392 270.36 72.2246C275.445 79.6983 285.975 86.6662 304.524 91.8072C333.014 99.7049 371.915 99.607 412.895 95.1566C472.33 88.7052 536.266 73.3203 577.373 62.3886C579.06 61.9427 581.57 61.2332 584.643 60.298C585.58 61.7987 586.629 63.2776 587.791 64.7294C597.871 77.3821 615.708 87.6124 633.882 91.2663C749.148 114.435 883.675 86.6744 993.207 64.0822C998.154 63.0573 1001.04 59.2948 999.652 55.6871C998.228 52.0795 993.057 49.9833 988.074 51.0083C881.614 72.9697 750.909 100.678 638.866 78.1649C625.076 75.3919 611.661 67.5296 604.016 57.9272C603.154 56.8561 602.405 55.7605 601.693 54.6486C616.794 49.2194 634.557 41.6506 644.112 33.549C653.93 25.2435 656.366 16.3779 647.822 8.00443C640.477 0.84618 629.348 0.237187 617.769 3.94817C605.29 7.92286 592.437 17.2151 588.278 21.5759C580.483 29.721 578.01 38.5568 579.434 47.1722C575.762 48.2977 572.779 49.135 570.939 49.6244C530.731 60.3142 468.238 75.4029 410.122 81.7129C372.728 85.7746 337.207 86.3155 311.209 79.1111C300.121 76.0363 292.795 72.4477 288.819 68.2827C296.666 66.5808 304.232 64.9061 311.46 63.3075C325.756 60.1457 355.52 54.9123 376.786 45.5846C393.697 38.168 405.164 28.0791 404.497 15.4318C404.156 8.9342 398.973 4.59785 390.726 2.16736C378.401 -1.46206 357.087 0.294162 349.15 1.51756C325.078 5.22039 292.949 20.5483 277.053 37.82C270.709 44.7118 266.935 51.9217 266.534 58.8897ZM286.308 54.6431C293.11 53.1587 299.682 51.7015 305.997 50.3041C319.341 47.3516 347.235 42.6618 367.092 33.9512C377.607 29.3404 386.192 23.8161 385.776 15.951C385.742 15.3393 384.906 15.1654 384.168 14.9153C383.025 14.5319 381.717 14.2681 380.323 14.0615C370.891 12.6641 358.222 14.0153 353.036 14.8145C332.838 17.922 305.97 30.8765 292.634 45.3697C289.816 48.4309 287.571 51.5492 286.308 54.6431ZM597.946 40.9138C606.752 37.627 615.97 33.6522 623.24 29.3268C627.099 27.0295 630.36 24.6671 632.421 22.2149C634.144 20.1867 634.819 18.1096 632.758 16.1032C631.933 15.2903 630.697 15.2741 629.423 15.4263C628.074 15.5895 626.687 15.9374 625.301 16.3859C616.157 19.3058 606.714 26.1269 603.679 29.3268C600.119 33.0378 598.358 36.9636 597.946 40.9138Z" fill="#A1AD95"/>
</svg>
