<svg width="1204" height="101" viewBox="0 0 1204 101" fill="none" xmlns="http://www.w3.org/2000/svg">
<path d="M2 50L1202 50" stroke="#072F38" stroke-width="4" stroke-linecap="round"/>
<path d="M635 50L597 0L559 50L597 100L635 50Z" fill="#E68C3A"/>
<path d="M213.839 78.5969L237 77.7311L210.987 50.4854L237 23.2397L213.841 22.3727L211.214 0L187 25.3615L162.786 0L160.159 22.3727L137 23.2397L163.013 50.4854L137 77.7311L160.161 78.5969L162.786 100.971L187 75.6094L211.214 100.971L213.839 78.5969Z" fill="#37514D"/>
<path d="M979.757 60.3828L962.879 89.6173L980.862 100L997.741 70.7655L1014.62 100L1032.6 89.6173L1015.72 60.3828H1049.48V39.6173H1015.72L1032.6 10.3827L1014.62 0L997.741 29.2346L980.862 0L962.879 10.3827L979.757 39.6173H946V60.3828H979.757Z" fill="#9CC4BC"/>
<circle cx="287" cy="50" r="20" fill="#A1AD95"/>
<circle cx="685" cy="50" r="20" fill="#9CC4BC"/>
<circle cx="1100" cy="50" r="20" fill="#E68C3A"/>
<circle cx="509" cy="50" r="20" fill="#EBFACF"/>
<circle cx="333" cy="50" r="20" fill="#9CC4BC"/>
<circle cx="731" cy="50" r="20" fill="#37514D"/>
</svg>
