<svg width="20" height="20" viewBox="0 0 20 20" fill="none" xmlns="http://www.w3.org/2000/svg">
<path opacity="0.8" d="M3.90786 18.7552C4.42461 19.1305 5.02455 19.3116 5.62011 19.3116C6.5164 19.3116 7.40095 18.9013 7.97022 18.1302C7.97186 18.1286 7.9734 18.1269 7.97486 18.1251C7.97623 18.1233 7.97761 18.1215 7.97889 18.1197L7.98087 18.1169C7.98224 18.115 7.98353 18.1131 7.98482 18.1113L9.99924 15.3412L12.0137 18.1113C12.0156 18.1143 12.0177 18.1166 12.0197 18.1192C12.0206 18.1204 12.0215 18.1216 12.0224 18.123C12.9713 19.4153 14.7944 19.7 16.0921 18.7567C17.3913 17.8134 17.6817 15.9896 16.7446 14.6871L16.7425 14.6838C16.7408 14.6811 16.7394 14.679 16.7373 14.6768L14.7272 11.9053L17.9839 10.8452C19.5137 10.3472 20.3545 8.69572 19.8567 7.16533C19.359 5.63503 17.7095 4.79394 16.1782 5.29043L12.9217 6.34619L12.9202 2.91901C12.9186 1.30982 11.6093 0 10.0007 0C8.39211 0 7.08276 1.30982 7.0813 2.92047L7.07838 6.34473L3.82175 5.28896C3.82046 5.28896 3.81889 5.28868 3.81731 5.28823C3.81526 5.28768 3.81315 5.28686 3.81151 5.28604C2.28319 4.79541 0.639552 5.63649 0.14325 7.16396C-0.353059 8.69135 0.481912 10.337 2.00439 10.8393C2.00579 10.8398 2.00706 10.8403 2.00827 10.8408L2.01363 10.8429L2.01608 10.8437L5.27123 11.9038L3.2612 14.6754C3.26047 14.6768 3.25938 14.6783 3.25829 14.6798C3.25719 14.6812 3.25611 14.6827 3.25538 14.6841C2.31677 15.9866 2.60871 17.812 3.90786 18.7552Z" fill="#EBFACF"/>
</svg>
