<svg width="40" height="40" viewBox="0 0 40 40" fill="none" xmlns="http://www.w3.org/2000/svg">
<path fill-rule="evenodd" clip-rule="evenodd" d="M40 6.72811C40 10.0637 37.5727 12.8323 34.388 13.3641C37.5727 13.8959 40 16.6645 40 20C40 23.3355 37.5727 26.1041 34.388 26.6359C37.5727 27.1677 40 29.9364 40 33.2719C40 36.9877 36.9877 40 33.2719 40C29.9364 40 27.1677 37.5727 26.6359 34.388C26.1041 37.5727 23.3355 40 20 40C16.6645 40 13.8959 37.5727 13.3641 34.388C12.8323 37.5727 10.0637 40 6.72811 40C3.01228 40 0 36.9877 0 33.2719C0 29.9364 2.4273 27.1677 5.61189 26.6359C2.4273 26.1041 0 23.3355 0 20C0 16.6645 2.4273 13.8959 5.61189 13.3641C2.4273 12.8323 0 10.0637 0 6.72811C0 3.01228 3.01228 0 6.72811 0C10.0637 0 12.8323 2.4273 13.3641 5.61189C13.8959 2.4273 16.6645 0 20 0C23.3355 0 26.1041 2.4273 26.6359 5.61189C27.1677 2.4273 29.9364 0 33.2719 0C36.9877 0 40 3.01228 40 6.72811ZM13.3641 7.84433C12.8929 10.6659 10.6659 12.8929 7.84433 13.3641C10.6659 13.8352 12.8929 16.0623 13.3641 18.8839C13.8352 16.0623 16.0623 13.8352 18.8839 13.3641C16.0623 12.8929 13.8352 10.6659 13.3641 7.84433ZM21.1161 13.3641C23.9377 12.8929 26.1648 10.6659 26.6359 7.84433C27.1071 10.6659 29.3342 12.8929 32.1558 13.3641C29.3342 13.8352 27.1071 16.0623 26.6359 18.8839C26.1648 16.0623 23.9377 13.8352 21.1161 13.3641ZM26.6359 32.1558C27.1071 29.3342 29.3342 27.1071 32.1558 26.6359C29.3342 26.1648 27.1071 23.9377 26.6359 21.1161C26.1648 23.9377 23.9377 26.1648 21.1161 26.6359C23.9377 27.1071 26.1648 29.3342 26.6359 32.1558ZM13.3641 21.1161C13.8352 23.9377 16.0623 26.1648 18.8839 26.6359C16.0623 27.1071 13.8352 29.3342 13.3641 32.1558C12.8929 29.3342 10.6659 27.1071 7.84433 26.6359C10.6659 26.1648 12.8929 23.9377 13.3641 21.1161Z" fill="#E68C3A"/>
</svg>
