<svg width="1280" height="566" viewBox="0 0 1280 566" fill="none" xmlns="http://www.w3.org/2000/svg">
<g clip-path="url(#clip0_39_148)">
<rect width="1280" height="566" fill="#FAFAFA"/>
<path d="M474.3 621H-5V-179L474.3 621Z" fill="#9CC4BC"/>
<path d="M119.666 376V315.844H143.729V327.567H131.766V337.138H143.113V348.725H131.766V376H119.666ZM147.42 376V324.73H159.861V330.438C160.454 328.456 161.502 326.907 163.006 325.79C164.51 324.674 166.401 324.115 168.68 324.115V334.335C167.677 334.335 166.481 334.449 165.091 334.677C163.701 334.882 162.482 335.178 161.434 335.565C160.385 335.93 159.861 336.34 159.861 336.796V376H147.42ZM186.59 376.547C176.382 376.547 171.277 371.249 171.277 360.653V340.077C171.277 335.246 172.633 331.396 175.345 328.524C178.056 325.631 181.805 324.184 186.59 324.184C191.398 324.184 195.158 325.631 197.869 328.524C200.581 331.396 201.937 335.246 201.937 340.077V360.653C201.937 371.249 196.821 376.547 186.59 376.547ZM186.59 367.113C187.615 367.113 188.344 366.749 188.777 366.02C189.233 365.268 189.461 364.322 189.461 363.183V338.129C189.461 335.144 188.504 333.651 186.59 333.651C184.676 333.651 183.719 335.144 183.719 338.129V363.183C183.719 364.322 183.935 365.268 184.368 366.02C184.824 366.749 185.564 367.113 186.59 367.113ZM206.482 376V324.73H218.719V331.259C219.174 329.299 220.018 327.636 221.248 326.269C222.501 324.879 224.233 324.184 226.443 324.184C229.998 324.184 232.573 325.277 234.168 327.465C235.786 329.652 236.595 332.649 236.595 336.454V376H224.529V337.719C224.529 336.716 224.324 335.793 223.914 334.95C223.504 334.084 222.798 333.651 221.795 333.651C220.861 333.651 220.166 333.982 219.71 334.643C219.277 335.281 219.004 336.09 218.89 337.069C218.776 338.026 218.719 338.983 218.719 339.94V376H206.482ZM251.941 376.547C248.637 376.547 246.404 375.852 245.242 374.462C244.103 373.049 243.533 370.896 243.533 368.002V336.044H240.081V326.713H243.533V315.844H255.428V326.713H258.88V336.044H255.428V365.131C255.428 365.974 255.564 366.566 255.838 366.908C256.111 367.25 256.635 367.421 257.41 367.421C257.957 367.421 258.447 367.375 258.88 367.284V375.624C258.606 375.715 257.752 375.886 256.316 376.137C254.881 376.41 253.423 376.547 251.941 376.547ZM279.422 376V315.844H303.484V327.465H291.658V339.188H303.006V350.502H291.658V364.276H304.271V376H279.422ZM308.064 376V324.73H320.301V331.259C320.757 329.299 321.6 327.636 322.83 326.269C324.083 324.879 325.815 324.184 328.025 324.184C331.58 324.184 334.155 325.277 335.75 327.465C337.368 329.652 338.177 332.649 338.177 336.454V376H326.111V337.719C326.111 336.716 325.906 335.793 325.496 334.95C325.086 334.084 324.38 333.651 323.377 333.651C322.443 333.651 321.748 333.982 321.292 334.643C320.859 335.281 320.586 336.09 320.472 337.069C320.358 338.026 320.301 338.983 320.301 339.94V376H308.064ZM353.079 376.547C350.709 376.547 348.829 376.114 347.439 375.248C346.049 374.382 345.013 373.186 344.329 371.659C343.646 370.132 343.19 368.344 342.962 366.293C342.757 364.242 342.654 362.043 342.654 359.696V337.411C342.654 333.469 343.349 330.279 344.739 327.841C346.152 325.403 348.533 324.184 351.883 324.184C354.367 324.184 356.269 324.719 357.591 325.79C358.935 326.838 359.972 328.308 360.701 330.199V315.844H373.143V376H360.701V370.565C360.018 372.411 359.106 373.869 357.967 374.94C356.85 376.011 355.221 376.547 353.079 376.547ZM357.762 366.977C358.924 366.977 359.699 366.509 360.086 365.575C360.496 364.641 360.701 362.966 360.701 360.551V338.983C360.701 337.776 360.519 336.591 360.154 335.429C359.812 334.244 359.038 333.651 357.83 333.651C356.508 333.651 355.677 334.21 355.335 335.326C354.993 336.443 354.822 337.662 354.822 338.983V360.551C354.822 364.835 355.802 366.977 357.762 366.977ZM394.471 376V315.844H411.014C415.343 315.844 418.602 317.051 420.789 319.467C422.977 321.859 424.07 325.368 424.07 329.994V358.158C424.07 363.855 423.068 368.253 421.062 371.352C419.08 374.451 415.594 376 410.604 376H394.471ZM406.57 365.37H408.655C410.866 365.37 411.971 364.299 411.971 362.157V331.122C411.971 329.117 411.697 327.829 411.15 327.26C410.626 326.667 409.544 326.371 407.903 326.371H406.57V365.37ZM443.143 376.547C439.497 376.547 436.591 375.863 434.427 374.496C432.262 373.129 430.713 371.158 429.778 368.583C428.844 366.008 428.377 362.909 428.377 359.286V338.676C428.377 333.913 429.744 330.313 432.479 327.875C435.213 325.414 438.973 324.184 443.758 324.184C453.602 324.184 458.523 329.014 458.523 338.676V342.401C458.523 346.913 458.478 349.944 458.387 351.493H440.613V361.405C440.613 362.317 440.67 363.217 440.784 364.105C440.898 364.971 441.149 365.689 441.536 366.259C441.946 366.828 442.596 367.113 443.484 367.113C444.76 367.113 445.558 366.566 445.877 365.473C446.196 364.356 446.355 362.909 446.355 361.132V356.21H458.523V359.115C458.523 362.943 458.045 366.156 457.088 368.754C456.154 371.329 454.559 373.277 452.303 374.599C450.07 375.897 447.016 376.547 443.143 376.547ZM440.545 345.409H446.355V338.505C446.355 336.659 446.128 335.338 445.672 334.54C445.216 333.72 444.533 333.31 443.621 333.31C442.641 333.31 441.878 333.697 441.331 334.472C440.807 335.246 440.545 336.591 440.545 338.505V345.409ZM477.015 376.547C466.897 376.547 461.839 371.42 461.839 361.166V357.099H474.144V363.114C474.144 364.276 474.371 365.188 474.827 365.849C475.283 366.509 476.012 366.84 477.015 366.84C478.792 366.84 479.681 365.507 479.681 362.841C479.681 360.608 479.214 358.944 478.279 357.851C477.345 356.734 476.206 355.663 474.861 354.638L468.333 349.613C466.282 348.018 464.721 346.332 463.65 344.555C462.579 342.777 462.044 340.305 462.044 337.138C462.044 334.198 462.739 331.771 464.129 329.857C465.542 327.943 467.399 326.519 469.7 325.585C472.024 324.651 474.531 324.184 477.22 324.184C487.155 324.184 492.122 329.14 492.122 339.052V340.009H479.476V338.061C479.476 337.035 479.293 336.044 478.929 335.087C478.587 334.13 477.903 333.651 476.878 333.651C475.146 333.651 474.28 334.563 474.28 336.386C474.28 338.231 475.009 339.678 476.468 340.727L484.056 346.264C486.425 347.973 488.408 350.001 490.003 352.348C491.621 354.695 492.43 357.816 492.43 361.713C492.43 366.544 491.051 370.224 488.294 372.753C485.56 375.282 481.8 376.547 477.015 376.547ZM496.121 321.586V311.4H508.357V321.586H496.121ZM496.121 376V324.73H508.357V376H496.121ZM527.02 384.887C524.65 384.887 522.61 384.761 520.901 384.511C519.215 384.283 517.7 383.861 516.355 383.246C515.011 382.631 513.667 381.765 512.322 380.648L516.458 373.573C519.443 375.351 522.428 376.239 525.413 376.239C527.373 376.239 528.831 375.613 529.788 374.359C530.745 373.106 531.224 371.477 531.224 369.472V364.447C530.244 367.956 527.635 369.711 523.396 369.711C520.958 369.711 518.987 369.13 517.483 367.968C515.979 366.806 514.886 365.233 514.202 363.251C513.519 361.269 513.177 359.058 513.177 356.62V338.197C513.177 335.44 513.473 333.013 514.065 330.917C514.658 328.798 515.695 327.146 517.176 325.961C518.657 324.776 520.73 324.184 523.396 324.184C525.652 324.184 527.407 324.753 528.66 325.893C529.936 327.032 530.791 328.57 531.224 330.507V324.73H543.699V368.686C543.699 374.496 542.355 378.643 539.666 381.127C537 383.633 532.785 384.887 527.02 384.887ZM528.353 360.482C530.267 360.482 531.224 358.751 531.224 355.287V337.855C531.224 336.921 530.95 335.964 530.403 334.984C529.879 334.005 529.15 333.515 528.216 333.515C527.031 333.515 526.29 333.959 525.994 334.848C525.698 335.714 525.55 336.716 525.55 337.855V355.287C525.55 356.518 525.698 357.691 525.994 358.808C526.313 359.924 527.099 360.482 528.353 360.482ZM548.484 376V324.73H560.721V331.259C561.176 329.299 562.02 327.636 563.25 326.269C564.503 324.879 566.235 324.184 568.445 324.184C572 324.184 574.575 325.277 576.17 327.465C577.788 329.652 578.597 332.649 578.597 336.454V376H566.531V337.719C566.531 336.716 566.326 335.793 565.916 334.95C565.506 334.084 564.799 333.651 563.797 333.651C562.863 333.651 562.168 333.982 561.712 334.643C561.279 335.281 561.006 336.09 560.892 337.069C560.778 338.026 560.721 338.983 560.721 339.94V376H548.484ZM597.771 376.547C594.126 376.547 591.22 375.863 589.056 374.496C586.891 373.129 585.341 371.158 584.407 368.583C583.473 366.008 583.006 362.909 583.006 359.286V338.676C583.006 333.913 584.373 330.313 587.107 327.875C589.842 325.414 593.602 324.184 598.387 324.184C608.23 324.184 613.152 329.014 613.152 338.676V342.401C613.152 346.913 613.107 349.944 613.016 351.493H595.242V361.405C595.242 362.317 595.299 363.217 595.413 364.105C595.527 364.971 595.778 365.689 596.165 366.259C596.575 366.828 597.225 367.113 598.113 367.113C599.389 367.113 600.187 366.566 600.506 365.473C600.825 364.356 600.984 362.909 600.984 361.132V356.21H613.152V359.115C613.152 362.943 612.674 366.156 611.717 368.754C610.783 371.329 609.188 373.277 606.932 374.599C604.699 375.897 601.645 376.547 597.771 376.547ZM595.174 345.409H600.984V338.505C600.984 336.659 600.757 335.338 600.301 334.54C599.845 333.72 599.161 333.31 598.25 333.31C597.27 333.31 596.507 333.697 595.96 334.472C595.436 335.246 595.174 336.591 595.174 338.505V345.409ZM617.596 376V324.73H630.037V330.438C630.63 328.456 631.678 326.907 633.182 325.79C634.686 324.674 636.577 324.115 638.855 324.115V334.335C637.853 334.335 636.657 334.449 635.267 334.677C633.877 334.882 632.658 335.178 631.609 335.565C630.561 335.93 630.037 336.34 630.037 336.796V376H617.596Z" fill="#072F38"/>
<path d="M223.193 466.718C219.456 466.718 216.517 465.271 214.375 462.377C212.256 459.483 211.196 455.495 211.196 450.414C211.196 446.791 211.515 443.783 212.153 441.391C212.814 438.998 213.726 437.004 214.888 435.409C216.05 433.814 217.383 432.424 218.887 431.239L218.613 430.556C217.656 428.186 216.813 425.93 216.084 423.788C215.378 421.623 215.024 419.402 215.024 417.123C215.024 414.822 215.514 412.782 216.494 411.005C217.474 409.228 218.83 407.838 220.562 406.835C222.316 405.81 224.321 405.297 226.577 405.297C228.81 405.297 230.838 405.787 232.661 406.767C234.507 407.724 235.977 409.171 237.07 411.107C238.164 413.044 238.711 415.494 238.711 418.456C238.711 421.669 238.107 424.358 236.899 426.522C235.715 428.687 233.926 430.772 231.533 432.777L234.814 441.049C236.159 437.654 238.096 435.022 240.625 433.153L245.376 440.57C242.733 442.689 240.522 446.142 238.745 450.927L244.761 466H233.14L231.807 462.753C230.918 463.847 229.722 464.781 228.218 465.556C226.737 466.33 225.062 466.718 223.193 466.718ZM225.757 416.063C225.757 416.656 225.905 417.533 226.201 418.695C226.497 419.835 227.192 421.817 228.286 424.643C228.719 424.187 229.106 423.469 229.448 422.489C229.79 421.509 229.961 420.165 229.961 418.456C229.961 416.701 229.744 415.471 229.312 414.765C228.901 414.058 228.354 413.705 227.671 413.705C227.01 413.705 226.52 413.956 226.201 414.457C225.905 414.936 225.757 415.471 225.757 416.063ZM221.655 451.884C221.655 455.94 222.806 457.968 225.107 457.968C226.042 457.968 226.794 457.626 227.363 456.942C227.933 456.236 228.32 455.507 228.525 454.755L222.783 440.775C222.031 442.37 221.655 445.162 221.655 449.149V451.884ZM265.508 466V405.844H282.051C286.38 405.844 289.639 407.051 291.826 409.467C294.014 411.859 295.107 415.368 295.107 419.994V448.158C295.107 453.855 294.105 458.253 292.1 461.352C290.117 464.451 286.631 466 281.641 466H265.508ZM277.607 455.37H279.692C281.903 455.37 283.008 454.299 283.008 452.157V421.122C283.008 419.117 282.734 417.829 282.188 417.26C281.663 416.667 280.581 416.371 278.94 416.371H277.607V455.37ZM314.18 466.547C310.534 466.547 307.629 465.863 305.464 464.496C303.299 463.129 301.75 461.158 300.815 458.583C299.881 456.008 299.414 452.909 299.414 449.286V428.676C299.414 423.913 300.781 420.313 303.516 417.875C306.25 415.414 310.01 414.184 314.795 414.184C324.639 414.184 329.561 419.014 329.561 428.676V432.401C329.561 436.913 329.515 439.944 329.424 441.493H311.65V451.405C311.65 452.317 311.707 453.217 311.821 454.105C311.935 454.971 312.186 455.689 312.573 456.259C312.983 456.828 313.633 457.113 314.521 457.113C315.798 457.113 316.595 456.566 316.914 455.473C317.233 454.356 317.393 452.909 317.393 451.132V446.21H329.561V449.115C329.561 452.943 329.082 456.156 328.125 458.754C327.191 461.329 325.596 463.277 323.34 464.599C321.107 465.897 318.053 466.547 314.18 466.547ZM311.582 435.409H317.393V428.505C317.393 426.659 317.165 425.338 316.709 424.54C316.253 423.72 315.57 423.31 314.658 423.31C313.678 423.31 312.915 423.697 312.368 424.472C311.844 425.246 311.582 426.591 311.582 428.505V435.409ZM340.532 466L332.295 414.73H344.565L347.505 448.979L350.82 414.73H363.057L354.683 466H340.532ZM380.625 466.547C376.979 466.547 374.074 465.863 371.909 464.496C369.744 463.129 368.195 461.158 367.261 458.583C366.326 456.008 365.859 452.909 365.859 449.286V428.676C365.859 423.913 367.227 420.313 369.961 417.875C372.695 415.414 376.455 414.184 381.24 414.184C391.084 414.184 396.006 419.014 396.006 428.676V432.401C396.006 436.913 395.96 439.944 395.869 441.493H378.096V451.405C378.096 452.317 378.153 453.217 378.267 454.105C378.381 454.971 378.631 455.689 379.019 456.259C379.429 456.828 380.078 457.113 380.967 457.113C382.243 457.113 383.04 456.566 383.359 455.473C383.678 454.356 383.838 452.909 383.838 451.132V446.21H396.006V449.115C396.006 452.943 395.527 456.156 394.57 458.754C393.636 461.329 392.041 463.277 389.785 464.599C387.552 465.897 384.499 466.547 380.625 466.547ZM378.027 435.409H383.838V428.505C383.838 426.659 383.61 425.338 383.154 424.54C382.699 423.72 382.015 423.31 381.104 423.31C380.124 423.31 379.36 423.697 378.813 424.472C378.289 425.246 378.027 426.591 378.027 428.505V435.409ZM400.449 466V405.844H412.891V466H400.449ZM432.715 466.547C422.507 466.547 417.402 461.249 417.402 450.653V430.077C417.402 425.246 418.758 421.396 421.47 418.524C424.181 415.631 427.93 414.184 432.715 414.184C437.523 414.184 441.283 415.631 443.994 418.524C446.706 421.396 448.062 425.246 448.062 430.077V450.653C448.062 461.249 442.946 466.547 432.715 466.547ZM432.715 457.113C433.74 457.113 434.469 456.749 434.902 456.02C435.358 455.268 435.586 454.322 435.586 453.183V428.129C435.586 425.144 434.629 423.651 432.715 423.651C430.801 423.651 429.844 425.144 429.844 428.129V453.183C429.844 454.322 430.06 455.268 430.493 456.02C430.949 456.749 431.689 457.113 432.715 457.113ZM452.607 474.545V414.73H465.049V420.199C465.801 418.308 466.838 416.838 468.159 415.79C469.504 414.719 471.418 414.184 473.901 414.184C477.251 414.184 479.609 415.403 480.977 417.841C482.367 420.279 483.062 423.469 483.062 427.411V452.636C483.062 455.256 482.686 457.626 481.934 459.745C481.204 461.841 480.042 463.505 478.447 464.735C476.875 465.943 474.813 466.547 472.261 466.547C468.934 466.547 466.53 464.542 465.049 460.531V474.545H452.607ZM467.954 457.011C469.23 457.011 469.993 456.373 470.244 455.097C470.518 453.821 470.654 452.248 470.654 450.38V430.351C470.654 428.459 470.518 426.887 470.244 425.634C469.993 424.358 469.23 423.72 467.954 423.72C466.632 423.72 465.812 424.369 465.493 425.668C465.197 426.944 465.049 428.505 465.049 430.351V450.38C465.049 452.226 465.197 453.798 465.493 455.097C465.812 456.373 466.632 457.011 467.954 457.011ZM502.1 466.547C498.454 466.547 495.549 465.863 493.384 464.496C491.219 463.129 489.67 461.158 488.735 458.583C487.801 456.008 487.334 452.909 487.334 449.286V428.676C487.334 423.913 488.701 420.313 491.436 417.875C494.17 415.414 497.93 414.184 502.715 414.184C512.559 414.184 517.48 419.014 517.48 428.676V432.401C517.48 436.913 517.435 439.944 517.344 441.493H499.57V451.405C499.57 452.317 499.627 453.217 499.741 454.105C499.855 454.971 500.106 455.689 500.493 456.259C500.903 456.828 501.553 457.113 502.441 457.113C503.717 457.113 504.515 456.566 504.834 455.473C505.153 454.356 505.312 452.909 505.312 451.132V446.21H517.48V449.115C517.48 452.943 517.002 456.156 516.045 458.754C515.111 461.329 513.516 463.277 511.26 464.599C509.027 465.897 505.973 466.547 502.1 466.547ZM499.502 435.409H505.312V428.505C505.312 426.659 505.085 425.338 504.629 424.54C504.173 423.72 503.49 423.31 502.578 423.31C501.598 423.31 500.835 423.697 500.288 424.472C499.764 425.246 499.502 426.591 499.502 428.505V435.409ZM521.924 466V414.73H534.365V420.438C534.958 418.456 536.006 416.907 537.51 415.79C539.014 414.674 540.905 414.115 543.184 414.115V424.335C542.181 424.335 540.985 424.449 539.595 424.677C538.205 424.882 536.986 425.178 535.938 425.565C534.889 425.93 534.365 426.34 534.365 426.796V466H521.924Z" fill="#072F38"/>
<path d="M525.562 167V106.844H549.625V118.465H537.799V130.188H549.146V141.502H537.799V155.276H550.411V167H525.562ZM552.018 167L561.417 139.451L552.872 115.696H565.348L569.757 128.138L574.098 115.696H583.189L574.371 141.058L583.6 167H571.329L566.134 152.576L561.28 167H552.018ZM586.334 175.545V115.73H598.775V121.199C599.527 119.308 600.564 117.838 601.886 116.79C603.23 115.719 605.144 115.184 607.628 115.184C610.978 115.184 613.336 116.403 614.703 118.841C616.093 121.279 616.788 124.469 616.788 128.411V153.636C616.788 156.256 616.412 158.626 615.66 160.745C614.931 162.841 613.769 164.505 612.174 165.735C610.602 166.943 608.539 167.547 605.987 167.547C602.66 167.547 600.257 165.542 598.775 161.531V175.545H586.334ZM601.681 158.011C602.957 158.011 603.72 157.373 603.971 156.097C604.244 154.821 604.381 153.248 604.381 151.38V131.351C604.381 129.459 604.244 127.887 603.971 126.634C603.72 125.358 602.957 124.72 601.681 124.72C600.359 124.72 599.539 125.369 599.22 126.668C598.924 127.944 598.775 129.505 598.775 131.351V151.38C598.775 153.226 598.924 154.798 599.22 156.097C599.539 157.373 600.359 158.011 601.681 158.011ZM635.826 167.547C632.18 167.547 629.275 166.863 627.11 165.496C624.946 164.129 623.396 162.158 622.462 159.583C621.528 157.008 621.061 153.909 621.061 150.286V129.676C621.061 124.913 622.428 121.313 625.162 118.875C627.896 116.414 631.656 115.184 636.441 115.184C646.285 115.184 651.207 120.014 651.207 129.676V133.401C651.207 137.913 651.161 140.944 651.07 142.493H633.297V152.405C633.297 153.317 633.354 154.217 633.468 155.105C633.582 155.971 633.832 156.689 634.22 157.259C634.63 157.828 635.279 158.113 636.168 158.113C637.444 158.113 638.242 157.566 638.561 156.473C638.88 155.356 639.039 153.909 639.039 152.132V147.21H651.207V150.115C651.207 153.943 650.729 157.156 649.771 159.754C648.837 162.329 647.242 164.277 644.986 165.599C642.753 166.897 639.7 167.547 635.826 167.547ZM633.229 136.409H639.039V129.505C639.039 127.659 638.811 126.338 638.355 125.54C637.9 124.72 637.216 124.31 636.305 124.31C635.325 124.31 634.562 124.697 634.015 125.472C633.491 126.246 633.229 127.591 633.229 129.505V136.409ZM655.65 167V115.73H668.092V121.438C668.684 119.456 669.732 117.907 671.236 116.79C672.74 115.674 674.632 115.115 676.91 115.115V125.335C675.908 125.335 674.711 125.449 673.321 125.677C671.931 125.882 670.712 126.178 669.664 126.565C668.616 126.93 668.092 127.34 668.092 127.796V167H655.65ZM679.85 112.586V102.4H692.086V112.586H679.85ZM679.85 167V115.73H692.086V167H679.85ZM711.295 167.547C707.649 167.547 704.744 166.863 702.579 165.496C700.414 164.129 698.865 162.158 697.931 159.583C696.996 157.008 696.529 153.909 696.529 150.286V129.676C696.529 124.913 697.896 121.313 700.631 118.875C703.365 116.414 707.125 115.184 711.91 115.184C721.754 115.184 726.676 120.014 726.676 129.676V133.401C726.676 137.913 726.63 140.944 726.539 142.493H708.766V152.405C708.766 153.317 708.823 154.217 708.937 155.105C709.05 155.971 709.301 156.689 709.688 157.259C710.099 157.828 710.748 158.113 711.637 158.113C712.913 158.113 713.71 157.566 714.029 156.473C714.348 155.356 714.508 153.909 714.508 152.132V147.21H726.676V150.115C726.676 153.943 726.197 157.156 725.24 159.754C724.306 162.329 722.711 164.277 720.455 165.599C718.222 166.897 715.169 167.547 711.295 167.547ZM708.697 136.409H714.508V129.505C714.508 127.659 714.28 126.338 713.824 125.54C713.368 124.72 712.685 124.31 711.773 124.31C710.794 124.31 710.03 124.697 709.483 125.472C708.959 126.246 708.697 127.591 708.697 129.505V136.409ZM731.119 167V115.73H743.355V122.259C743.811 120.299 744.654 118.636 745.885 117.269C747.138 115.879 748.87 115.184 751.08 115.184C754.635 115.184 757.21 116.277 758.805 118.465C760.423 120.652 761.231 123.649 761.231 127.454V167H749.166V128.719C749.166 127.716 748.961 126.793 748.551 125.95C748.141 125.084 747.434 124.651 746.432 124.651C745.497 124.651 744.802 124.982 744.347 125.643C743.914 126.281 743.64 127.09 743.526 128.069C743.412 129.026 743.355 129.983 743.355 130.94V167H731.119ZM781.466 167.547C775.724 167.547 771.645 166.077 769.229 163.138C766.837 160.198 765.641 155.88 765.641 150.184V134.393C765.641 130.109 766.096 126.543 767.008 123.694C767.919 120.846 769.514 118.715 771.793 117.303C774.072 115.89 777.239 115.184 781.295 115.184C784.12 115.184 786.65 115.685 788.883 116.688C791.139 117.69 792.916 119.16 794.215 121.097C795.514 123.034 796.163 125.403 796.163 128.206V136.033H783.688V128.855C783.688 127.671 783.517 126.679 783.175 125.882C782.833 125.062 782.092 124.651 780.953 124.651C778.948 124.651 777.945 126.076 777.945 128.924V153.772C777.945 154.821 778.173 155.789 778.629 156.678C779.085 157.544 779.837 157.977 780.885 157.977C781.956 157.977 782.696 157.555 783.106 156.712C783.539 155.846 783.756 154.843 783.756 153.704V145.091H796.163V154.046C796.163 156.871 795.525 159.298 794.249 161.326C792.996 163.331 791.264 164.869 789.054 165.94C786.843 167.011 784.314 167.547 781.466 167.547ZM814.791 167.547C811.145 167.547 808.24 166.863 806.075 165.496C803.91 164.129 802.361 162.158 801.427 159.583C800.493 157.008 800.025 153.909 800.025 150.286V129.676C800.025 124.913 801.393 121.313 804.127 118.875C806.861 116.414 810.621 115.184 815.406 115.184C825.25 115.184 830.172 120.014 830.172 129.676V133.401C830.172 137.913 830.126 140.944 830.035 142.493H812.262V152.405C812.262 153.317 812.319 154.217 812.433 155.105C812.547 155.971 812.797 156.689 813.185 157.259C813.595 157.828 814.244 158.113 815.133 158.113C816.409 158.113 817.206 157.566 817.525 156.473C817.844 155.356 818.004 153.909 818.004 152.132V147.21H830.172V150.115C830.172 153.943 829.693 157.156 828.736 159.754C827.802 162.329 826.207 164.277 823.951 165.599C821.718 166.897 818.665 167.547 814.791 167.547ZM812.193 136.409H818.004V129.505C818.004 127.659 817.776 126.338 817.32 125.54C816.865 124.72 816.181 124.31 815.27 124.31C814.29 124.31 813.526 124.697 812.979 125.472C812.455 126.246 812.193 127.591 812.193 129.505V136.409ZM851.227 167V106.844H867.77C872.099 106.844 875.357 108.051 877.545 110.467C879.732 112.859 880.826 116.368 880.826 120.994V149.158C880.826 154.855 879.824 159.253 877.818 162.352C875.836 165.451 872.35 167 867.359 167H851.227ZM863.326 156.37H865.411C867.621 156.37 868.727 155.299 868.727 153.157V122.122C868.727 120.117 868.453 118.829 867.906 118.26C867.382 117.667 866.3 117.371 864.659 117.371H863.326V156.37ZM899.898 167.547C896.253 167.547 893.347 166.863 891.183 165.496C889.018 164.129 887.468 162.158 886.534 159.583C885.6 157.008 885.133 153.909 885.133 150.286V129.676C885.133 124.913 886.5 121.313 889.234 118.875C891.969 116.414 895.729 115.184 900.514 115.184C910.357 115.184 915.279 120.014 915.279 129.676V133.401C915.279 137.913 915.234 140.944 915.143 142.493H897.369V152.405C897.369 153.317 897.426 154.217 897.54 155.105C897.654 155.971 897.905 156.689 898.292 157.259C898.702 157.828 899.352 158.113 900.24 158.113C901.516 158.113 902.314 157.566 902.633 156.473C902.952 155.356 903.111 153.909 903.111 152.132V147.21H915.279V150.115C915.279 153.943 914.801 157.156 913.844 159.754C912.91 162.329 911.314 164.277 909.059 165.599C906.826 166.897 903.772 167.547 899.898 167.547ZM897.301 136.409H903.111V129.505C903.111 127.659 902.883 126.338 902.428 125.54C901.972 124.72 901.288 124.31 900.377 124.31C899.397 124.31 898.634 124.697 898.087 125.472C897.563 126.246 897.301 127.591 897.301 129.505V136.409ZM933.771 167.547C923.653 167.547 918.595 162.42 918.595 152.166V148.099H930.899V154.114C930.899 155.276 931.127 156.188 931.583 156.849C932.039 157.509 932.768 157.84 933.771 157.84C935.548 157.84 936.437 156.507 936.437 153.841C936.437 151.608 935.969 149.944 935.035 148.851C934.101 147.734 932.962 146.663 931.617 145.638L925.089 140.613C923.038 139.018 921.477 137.332 920.406 135.555C919.335 133.777 918.8 131.305 918.8 128.138C918.8 125.198 919.495 122.771 920.885 120.857C922.298 118.943 924.155 117.519 926.456 116.585C928.78 115.651 931.287 115.184 933.976 115.184C943.91 115.184 948.878 120.14 948.878 130.052V131.009H936.231V129.061C936.231 128.035 936.049 127.044 935.685 126.087C935.343 125.13 934.659 124.651 933.634 124.651C931.902 124.651 931.036 125.563 931.036 127.386C931.036 129.231 931.765 130.678 933.224 131.727L940.812 137.264C943.181 138.973 945.164 141.001 946.759 143.348C948.377 145.695 949.186 148.816 949.186 152.713C949.186 157.544 947.807 161.224 945.05 163.753C942.315 166.282 938.556 167.547 933.771 167.547ZM952.877 112.586V102.4H965.113V112.586H952.877ZM952.877 167V115.73H965.113V167H952.877ZM983.775 175.887C981.406 175.887 979.366 175.761 977.657 175.511C975.971 175.283 974.456 174.861 973.111 174.246C971.767 173.631 970.423 172.765 969.078 171.648L973.214 164.573C976.199 166.351 979.184 167.239 982.169 167.239C984.129 167.239 985.587 166.613 986.544 165.359C987.501 164.106 987.979 162.477 987.979 160.472V155.447C987 158.956 984.391 160.711 980.152 160.711C977.714 160.711 975.743 160.13 974.239 158.968C972.735 157.806 971.642 156.233 970.958 154.251C970.274 152.269 969.933 150.058 969.933 147.62V129.197C969.933 126.44 970.229 124.013 970.821 121.917C971.414 119.798 972.451 118.146 973.932 116.961C975.413 115.776 977.486 115.184 980.152 115.184C982.408 115.184 984.163 115.753 985.416 116.893C986.692 118.032 987.547 119.57 987.979 121.507V115.73H1000.46V159.686C1000.46 165.496 999.111 169.643 996.422 172.127C993.756 174.633 989.54 175.887 983.775 175.887ZM985.108 151.482C987.022 151.482 987.979 149.751 987.979 146.287V128.855C987.979 127.921 987.706 126.964 987.159 125.984C986.635 125.005 985.906 124.515 984.972 124.515C983.787 124.515 983.046 124.959 982.75 125.848C982.454 126.714 982.306 127.716 982.306 128.855V146.287C982.306 147.518 982.454 148.691 982.75 149.808C983.069 150.924 983.855 151.482 985.108 151.482ZM1005.24 167V115.73H1017.48V122.259C1017.93 120.299 1018.78 118.636 1020.01 117.269C1021.26 115.879 1022.99 115.184 1025.2 115.184C1028.76 115.184 1031.33 116.277 1032.93 118.465C1034.54 120.652 1035.35 123.649 1035.35 127.454V167H1023.29V128.719C1023.29 127.716 1023.08 126.793 1022.67 125.95C1022.26 125.084 1021.56 124.651 1020.55 124.651C1019.62 124.651 1018.92 124.982 1018.47 125.643C1018.03 126.281 1017.76 127.09 1017.65 128.069C1017.53 129.026 1017.48 129.983 1017.48 130.94V167H1005.24ZM1054.53 167.547C1050.88 167.547 1047.98 166.863 1045.81 165.496C1043.65 164.129 1042.1 162.158 1041.16 159.583C1040.23 157.008 1039.76 153.909 1039.76 150.286V129.676C1039.76 124.913 1041.13 121.313 1043.86 118.875C1046.6 116.414 1050.36 115.184 1055.14 115.184C1064.99 115.184 1069.91 120.014 1069.91 129.676V133.401C1069.91 137.913 1069.86 140.944 1069.77 142.493H1052V152.405C1052 153.317 1052.06 154.217 1052.17 155.105C1052.28 155.971 1052.53 156.689 1052.92 157.259C1053.33 157.828 1053.98 158.113 1054.87 158.113C1056.15 158.113 1056.94 157.566 1057.26 156.473C1057.58 155.356 1057.74 153.909 1057.74 152.132V147.21H1069.91V150.115C1069.91 153.943 1069.43 157.156 1068.47 159.754C1067.54 162.329 1065.94 164.277 1063.69 165.599C1061.45 166.897 1058.4 167.547 1054.53 167.547ZM1051.93 136.409H1057.74V129.505C1057.74 127.659 1057.51 126.338 1057.06 125.54C1056.6 124.72 1055.92 124.31 1055.01 124.31C1054.03 124.31 1053.26 124.697 1052.72 125.472C1052.19 126.246 1051.93 127.591 1051.93 129.505V136.409ZM1074.35 167V115.73H1086.79V121.438C1087.39 119.456 1088.43 117.907 1089.94 116.79C1091.44 115.674 1093.33 115.115 1095.61 115.115V125.335C1094.61 125.335 1093.41 125.449 1092.02 125.677C1090.63 125.882 1089.41 126.178 1088.37 126.565C1087.32 126.93 1086.79 127.34 1086.79 127.796V167H1074.35ZM1125.76 167.718C1122.02 167.718 1119.08 166.271 1116.94 163.377C1114.82 160.483 1113.76 156.495 1113.76 151.414C1113.76 147.791 1114.08 144.783 1114.72 142.391C1115.38 139.998 1116.29 138.004 1117.45 136.409C1118.61 134.814 1119.95 133.424 1121.45 132.239L1121.18 131.556C1120.22 129.186 1119.38 126.93 1118.65 124.788C1117.94 122.623 1117.59 120.402 1117.59 118.123C1117.59 115.822 1118.08 113.782 1119.06 112.005C1120.04 110.228 1121.39 108.838 1123.13 107.835C1124.88 106.81 1126.89 106.297 1129.14 106.297C1131.37 106.297 1133.4 106.787 1135.23 107.767C1137.07 108.724 1138.54 110.171 1139.63 112.107C1140.73 114.044 1141.28 116.494 1141.28 119.456C1141.28 122.669 1140.67 125.358 1139.46 127.522C1138.28 129.687 1136.49 131.772 1134.1 133.777L1137.38 142.049C1138.72 138.654 1140.66 136.022 1143.19 134.153L1147.94 141.57C1145.3 143.689 1143.09 147.142 1141.31 151.927L1147.33 167H1135.7L1134.37 163.753C1133.48 164.847 1132.29 165.781 1130.78 166.556C1129.3 167.33 1127.63 167.718 1125.76 167.718ZM1128.32 117.063C1128.32 117.656 1128.47 118.533 1128.77 119.695C1129.06 120.835 1129.76 122.817 1130.85 125.643C1131.28 125.187 1131.67 124.469 1132.01 123.489C1132.35 122.509 1132.53 121.165 1132.53 119.456C1132.53 117.701 1132.31 116.471 1131.88 115.765C1131.47 115.058 1130.92 114.705 1130.24 114.705C1129.57 114.705 1129.08 114.956 1128.77 115.457C1128.47 115.936 1128.32 116.471 1128.32 117.063ZM1124.22 152.884C1124.22 156.94 1125.37 158.968 1127.67 158.968C1128.61 158.968 1129.36 158.626 1129.93 157.942C1130.5 157.236 1130.88 156.507 1131.09 155.755L1125.35 141.775C1124.6 143.37 1124.22 146.162 1124.22 150.149V152.884Z" fill="#072F38"/>
<path d="M610.869 254V193.844H629.189L634.248 230.519L639.272 193.844H657.764V254H646.758V210.66L639.854 254H629.053L621.738 210.66V254H610.869ZM677.246 254.547C673.6 254.547 670.695 253.863 668.53 252.496C666.366 251.129 664.816 249.158 663.882 246.583C662.948 244.008 662.48 240.909 662.48 237.286V216.676C662.48 211.913 663.848 208.313 666.582 205.875C669.316 203.414 673.076 202.184 677.861 202.184C687.705 202.184 692.627 207.014 692.627 216.676V220.401C692.627 224.913 692.581 227.944 692.49 229.493H674.717V239.405C674.717 240.317 674.774 241.217 674.888 242.105C675.002 242.971 675.252 243.689 675.64 244.259C676.05 244.828 676.699 245.113 677.588 245.113C678.864 245.113 679.661 244.566 679.98 243.473C680.299 242.356 680.459 240.909 680.459 239.132V234.21H692.627V237.115C692.627 240.943 692.148 244.156 691.191 246.754C690.257 249.329 688.662 251.277 686.406 252.599C684.173 253.897 681.12 254.547 677.246 254.547ZM674.648 223.409H680.459V216.505C680.459 214.659 680.231 213.338 679.775 212.54C679.32 211.72 678.636 211.31 677.725 211.31C676.745 211.31 675.981 211.697 675.435 212.472C674.91 213.246 674.648 214.591 674.648 216.505V223.409ZM697.07 254V202.73H709.307V209.259C709.762 207.299 710.605 205.636 711.836 204.269C713.089 202.879 714.821 202.184 717.031 202.184C720.586 202.184 723.161 203.277 724.756 205.465C726.374 207.652 727.183 210.649 727.183 214.454V254H715.117V215.719C715.117 214.716 714.912 213.793 714.502 212.95C714.092 212.084 713.385 211.651 712.383 211.651C711.449 211.651 710.754 211.982 710.298 212.643C709.865 213.281 709.591 214.09 709.478 215.069C709.364 216.026 709.307 216.983 709.307 217.94V254H697.07ZM742.529 254.547C739.225 254.547 736.992 253.852 735.83 252.462C734.691 251.049 734.121 248.896 734.121 246.002V214.044H730.669V204.713H734.121V193.844H746.016V204.713H749.468V214.044H746.016V243.131C746.016 243.974 746.152 244.566 746.426 244.908C746.699 245.25 747.223 245.421 747.998 245.421C748.545 245.421 749.035 245.375 749.468 245.284V253.624C749.194 253.715 748.34 253.886 746.904 254.137C745.469 254.41 744.01 254.547 742.529 254.547ZM768.301 254.547C758.092 254.547 752.988 249.249 752.988 238.653V218.077C752.988 213.246 754.344 209.396 757.056 206.524C759.767 203.631 763.516 202.184 768.301 202.184C773.109 202.184 776.868 203.631 779.58 206.524C782.292 209.396 783.647 213.246 783.647 218.077V238.653C783.647 249.249 778.532 254.547 768.301 254.547ZM768.301 245.113C769.326 245.113 770.055 244.749 770.488 244.02C770.944 243.268 771.172 242.322 771.172 241.183V216.129C771.172 213.144 770.215 211.651 768.301 211.651C766.387 211.651 765.43 213.144 765.43 216.129V241.183C765.43 242.322 765.646 243.268 766.079 244.02C766.535 244.749 767.275 245.113 768.301 245.113ZM788.193 254V202.73H800.635V208.438C801.227 206.456 802.275 204.907 803.779 203.79C805.283 202.674 807.174 202.115 809.453 202.115V212.335C808.451 212.335 807.254 212.449 805.864 212.677C804.474 212.882 803.255 213.178 802.207 213.565C801.159 213.93 800.635 214.34 800.635 214.796V254H788.193Z" fill="#072F38"/>
<path d="M769.992 338V322.304H772.776V338H769.992ZM784.786 329.648L784.234 331.568H788.242L787.69 329.648C787.434 328.816 787.186 327.96 786.946 327.08C786.722 326.2 786.498 325.328 786.274 324.464H786.178C785.97 325.344 785.746 326.224 785.506 327.104C785.282 327.968 785.042 328.816 784.786 329.648ZM779.53 338L784.642 322.304H787.906L793.018 338H790.09L788.866 333.752H783.586L782.362 338H779.53ZM794.953 338V322.304H798.097L800.881 329.984C801.057 330.48 801.225 330.992 801.385 331.52C801.561 332.032 801.729 332.544 801.889 333.056H801.985C802.161 332.544 802.329 332.032 802.489 331.52C802.649 330.992 802.809 330.48 802.969 329.984L805.681 322.304H808.849V338H806.281V330.824C806.281 330.328 806.297 329.792 806.329 329.216C806.377 328.624 806.425 328.032 806.473 327.44C806.537 326.848 806.593 326.312 806.641 325.832H806.545L805.273 329.48L802.705 336.536H801.049L798.457 329.48L797.209 325.832H797.113C797.161 326.312 797.209 326.848 797.257 327.44C797.321 328.032 797.369 328.624 797.401 329.216C797.449 329.792 797.473 330.328 797.473 330.824V338H794.953ZM820.856 329.648L820.304 331.568H824.312L823.76 329.648C823.504 328.816 823.256 327.96 823.016 327.08C822.792 326.2 822.568 325.328 822.344 324.464H822.248C822.04 325.344 821.816 326.224 821.576 327.104C821.352 327.968 821.112 328.816 820.856 329.648ZM815.6 338L820.712 322.304H823.976L829.088 338H826.16L824.936 333.752H819.656L818.432 338H815.6ZM835.828 338V322.304H845.308V324.656H838.612V329.096H844.324V331.448H838.612V338H835.828ZM848.062 338V322.304H853.366C854.454 322.304 855.43 322.448 856.294 322.736C857.174 323.024 857.862 323.512 858.358 324.2C858.87 324.872 859.126 325.792 859.126 326.96C859.126 328.16 858.838 329.128 858.262 329.864C857.702 330.6 856.95 331.128 856.006 331.448L859.75 338H856.63L853.246 331.856H850.846V338H848.062ZM850.846 329.648H853.078C854.15 329.648 854.966 329.424 855.526 328.976C856.102 328.512 856.39 327.84 856.39 326.96C856.39 326.064 856.102 325.44 855.526 325.088C854.966 324.72 854.15 324.536 853.078 324.536H850.846V329.648ZM868.361 338.288C867.001 338.288 865.801 337.96 864.761 337.304C863.721 336.632 862.905 335.688 862.313 334.472C861.737 333.24 861.449 331.776 861.449 330.08C861.449 328.384 861.737 326.936 862.313 325.736C862.905 324.536 863.721 323.616 864.761 322.976C865.801 322.336 867.001 322.016 868.361 322.016C869.737 322.016 870.945 322.336 871.985 322.976C873.025 323.616 873.833 324.536 874.409 325.736C875.001 326.936 875.297 328.384 875.297 330.08C875.297 331.776 875.001 333.24 874.409 334.472C873.833 335.688 873.025 336.632 871.985 337.304C870.945 337.96 869.737 338.288 868.361 338.288ZM868.361 335.864C869.593 335.864 870.577 335.344 871.313 334.304C872.049 333.248 872.417 331.84 872.417 330.08C872.417 328.32 872.049 326.944 871.313 325.952C870.577 324.944 869.593 324.44 868.361 324.44C867.129 324.44 866.145 324.944 865.409 325.952C864.673 326.944 864.305 328.32 864.305 330.08C864.305 331.84 864.673 333.248 865.409 334.304C866.145 335.344 867.129 335.864 868.361 335.864ZM878.437 338V322.304H881.293L886.189 331.136L887.797 334.472H887.893C887.829 333.672 887.749 332.8 887.653 331.856C887.573 330.912 887.533 330 887.533 329.12V322.304H890.197V338H887.341L882.445 329.168L880.837 325.832H880.741C880.805 326.664 880.877 327.536 880.957 328.448C881.053 329.36 881.101 330.256 881.101 331.136V338H878.437ZM897.355 338V324.656H892.819V322.304H904.675V324.656H900.139V338H897.355ZM912.094 338V322.304H921.55V324.656H914.878V328.664H920.518V331.016H914.878V335.648H921.79V338H912.094ZM925.008 338V322.304H927.864L932.76 331.136L934.368 334.472H934.464C934.4 333.672 934.32 332.8 934.224 331.856C934.144 330.912 934.104 330 934.104 329.12V322.304H936.768V338H933.912L929.016 329.168L927.408 325.832H927.312C927.376 326.664 927.448 327.536 927.528 328.448C927.624 329.36 927.672 330.256 927.672 331.136V338H925.008ZM940.758 338V322.304H944.958C947.358 322.304 949.23 322.952 950.574 324.248C951.918 325.544 952.59 327.488 952.59 330.08C952.59 332.688 951.926 334.664 950.598 336.008C949.27 337.336 947.438 338 945.102 338H940.758ZM943.542 335.744H944.766C946.35 335.744 947.574 335.288 948.438 334.376C949.302 333.448 949.734 332.016 949.734 330.08C949.734 328.16 949.302 326.76 948.438 325.88C947.574 325 946.35 324.56 944.766 324.56H943.542V335.744ZM960.562 338V322.304H964.762C967.162 322.304 969.034 322.952 970.378 324.248C971.722 325.544 972.394 327.488 972.394 330.08C972.394 332.688 971.73 334.664 970.402 336.008C969.074 337.336 967.242 338 964.906 338H960.562ZM963.346 335.744H964.57C966.154 335.744 967.378 335.288 968.242 334.376C969.106 333.448 969.538 332.016 969.538 330.08C969.538 328.16 969.106 326.76 968.242 325.88C967.378 325 966.154 324.56 964.57 324.56H963.346V335.744ZM975.562 338V322.304H985.018V324.656H978.346V328.664H983.986V331.016H978.346V335.648H985.258V338H975.562ZM991.284 338L986.388 322.304H989.34L991.548 330.2C991.804 331.08 992.036 331.928 992.244 332.744C992.452 333.56 992.684 334.416 992.94 335.312H993.036C993.308 334.416 993.54 333.56 993.732 332.744C993.94 331.928 994.164 331.08 994.404 330.2L996.588 322.304H999.444L994.572 338H991.284ZM1001.34 338V322.304H1010.8V324.656H1004.13V328.664H1009.77V331.016H1004.13V335.648H1011.04V338H1001.34ZM1014.26 338V322.304H1017.04V335.648H1023.57V338H1014.26ZM1031.65 338.288C1030.29 338.288 1029.09 337.96 1028.05 337.304C1027.01 336.632 1026.19 335.688 1025.6 334.472C1025.03 333.24 1024.74 331.776 1024.74 330.08C1024.74 328.384 1025.03 326.936 1025.6 325.736C1026.19 324.536 1027.01 323.616 1028.05 322.976C1029.09 322.336 1030.29 322.016 1031.65 322.016C1033.03 322.016 1034.23 322.336 1035.27 322.976C1036.31 323.616 1037.12 324.536 1037.7 325.736C1038.29 326.936 1038.59 328.384 1038.59 330.08C1038.59 331.776 1038.29 333.24 1037.7 334.472C1037.12 335.688 1036.31 336.632 1035.27 337.304C1034.23 337.96 1033.03 338.288 1031.65 338.288ZM1031.65 335.864C1032.88 335.864 1033.87 335.344 1034.6 334.304C1035.34 333.248 1035.71 331.84 1035.71 330.08C1035.71 328.32 1035.34 326.944 1034.6 325.952C1033.87 324.944 1032.88 324.44 1031.65 324.44C1030.42 324.44 1029.43 324.944 1028.7 325.952C1027.96 326.944 1027.59 328.32 1027.59 330.08C1027.59 331.84 1027.96 333.248 1028.7 334.304C1029.43 335.344 1030.42 335.864 1031.65 335.864ZM1041.73 338V322.304H1046.67C1047.84 322.304 1048.88 322.456 1049.79 322.76C1050.7 323.064 1051.42 323.568 1051.95 324.272C1052.48 324.976 1052.74 325.936 1052.74 327.152C1052.74 328.304 1052.48 329.256 1051.95 330.008C1051.42 330.76 1050.71 331.32 1049.81 331.688C1048.92 332.056 1047.9 332.24 1046.77 332.24H1044.51V338H1041.73ZM1044.51 330.008H1046.55C1048.85 330.008 1050.01 329.056 1050.01 327.152C1050.01 326.16 1049.7 325.48 1049.09 325.112C1048.5 324.728 1047.62 324.536 1046.45 324.536H1044.51V330.008ZM1055.7 338V322.304H1065.15V324.656H1058.48V328.664H1064.12V331.016H1058.48V335.648H1065.39V338H1055.7ZM1068.61 338V322.304H1073.91C1075 322.304 1075.98 322.448 1076.84 322.736C1077.72 323.024 1078.41 323.512 1078.91 324.2C1079.42 324.872 1079.67 325.792 1079.67 326.96C1079.67 328.16 1079.39 329.128 1078.81 329.864C1078.25 330.6 1077.5 331.128 1076.55 331.448L1080.3 338H1077.18L1073.79 331.856H1071.39V338H1068.61ZM1071.39 329.648H1073.63C1074.7 329.648 1075.51 329.424 1076.07 328.976C1076.65 328.512 1076.94 327.84 1076.94 326.96C1076.94 326.064 1076.65 325.44 1076.07 325.088C1075.51 324.72 1074.7 324.536 1073.63 324.536H1071.39V329.648ZM1082.55 342.368L1081.95 340.856C1082.73 340.552 1083.33 340.136 1083.75 339.608C1084.18 339.096 1084.39 338.544 1084.37 337.952C1084.34 337.952 1084.3 337.952 1084.25 337.952C1084.22 337.952 1084.19 337.952 1084.16 337.952C1083.69 337.952 1083.28 337.808 1082.91 337.52C1082.56 337.216 1082.38 336.792 1082.38 336.248C1082.38 335.736 1082.56 335.328 1082.93 335.024C1083.3 334.704 1083.73 334.544 1084.23 334.544C1084.88 334.544 1085.39 334.792 1085.74 335.288C1086.11 335.784 1086.29 336.48 1086.29 337.376C1086.29 338.544 1085.96 339.56 1085.31 340.424C1084.65 341.304 1083.73 341.952 1082.55 342.368ZM1094.23 338V322.304H1098.43C1100.83 322.304 1102.7 322.952 1104.04 324.248C1105.39 325.544 1106.06 327.488 1106.06 330.08C1106.06 332.688 1105.39 334.664 1104.07 336.008C1102.74 337.336 1100.91 338 1098.57 338H1094.23ZM1097.01 335.744H1098.23C1099.82 335.744 1101.04 335.288 1101.91 334.376C1102.77 333.448 1103.2 332.016 1103.2 330.08C1103.2 328.16 1102.77 326.76 1101.91 325.88C1101.04 325 1099.82 324.56 1098.23 324.56H1097.01V335.744ZM1109.23 338V322.304H1118.68V324.656H1112.01V328.664H1117.65V331.016H1112.01V335.648H1118.92V338H1109.23ZM1126.72 338.288C1125.67 338.288 1124.64 338.088 1123.65 337.688C1122.68 337.288 1121.81 336.72 1121.06 335.984L1122.69 334.088C1123.25 334.616 1123.89 335.048 1124.61 335.384C1125.33 335.704 1126.05 335.864 1126.77 335.864C1127.67 335.864 1128.35 335.68 1128.81 335.312C1129.28 334.944 1129.51 334.456 1129.51 333.848C1129.51 333.192 1129.28 332.72 1128.81 332.432C1128.36 332.144 1127.79 331.848 1127.08 331.544L1124.92 330.608C1124.41 330.384 1123.91 330.096 1123.41 329.744C1122.93 329.392 1122.53 328.944 1122.21 328.4C1121.91 327.856 1121.76 327.2 1121.76 326.432C1121.76 325.6 1121.98 324.856 1122.43 324.2C1122.89 323.528 1123.52 323 1124.3 322.616C1125.1 322.216 1126.01 322.016 1127.04 322.016C1127.95 322.016 1128.83 322.2 1129.68 322.568C1130.52 322.92 1131.25 323.4 1131.86 324.008L1130.44 325.784C1129.95 325.368 1129.42 325.04 1128.86 324.8C1128.32 324.56 1127.71 324.44 1127.04 324.44C1126.3 324.44 1125.7 324.608 1125.24 324.944C1124.79 325.264 1124.56 325.712 1124.56 326.288C1124.56 326.688 1124.68 327.024 1124.9 327.296C1125.14 327.552 1125.45 327.776 1125.84 327.968C1126.22 328.144 1126.63 328.32 1127.06 328.496L1129.2 329.384C1130.12 329.784 1130.88 330.312 1131.48 330.968C1132.07 331.608 1132.36 332.496 1132.36 333.632C1132.36 334.48 1132.14 335.256 1131.69 335.96C1131.24 336.664 1130.6 337.232 1129.75 337.664C1128.92 338.08 1127.91 338.288 1126.72 338.288ZM1135.22 338V322.304H1138V338H1135.22ZM1148.57 338.288C1147.16 338.288 1145.9 337.976 1144.78 337.352C1143.66 336.728 1142.78 335.816 1142.14 334.616C1141.5 333.4 1141.18 331.928 1141.18 330.2C1141.18 328.488 1141.5 327.024 1142.16 325.808C1142.82 324.576 1143.7 323.64 1144.82 323C1145.94 322.344 1147.2 322.016 1148.59 322.016C1149.71 322.016 1150.66 322.224 1151.42 322.64C1152.21 323.04 1152.85 323.496 1153.34 324.008L1151.86 325.808C1151.46 325.424 1151.01 325.104 1150.51 324.848C1150.03 324.576 1149.42 324.44 1148.69 324.44C1147.3 324.44 1146.17 324.952 1145.3 325.976C1144.46 326.984 1144.03 328.368 1144.03 330.128C1144.03 331.92 1144.44 333.328 1145.26 334.352C1146.07 335.36 1147.26 335.864 1148.83 335.864C1149.28 335.864 1149.7 335.808 1150.1 335.696C1150.5 335.568 1150.83 335.392 1151.09 335.168V331.784H1148.11V329.504H1153.58V336.416C1153.06 336.944 1152.35 337.392 1151.47 337.76C1150.61 338.112 1149.64 338.288 1148.57 338.288ZM1157.06 338V322.304H1159.92L1164.81 331.136L1166.42 334.472H1166.52C1166.45 333.672 1166.37 332.8 1166.28 331.856C1166.2 330.912 1166.16 330 1166.16 329.12V322.304H1168.82V338H1165.97L1161.07 329.168L1159.46 325.832H1159.37C1159.43 326.664 1159.5 327.536 1159.58 328.448C1159.68 329.36 1159.73 330.256 1159.73 331.136V338H1157.06ZM1172.81 338V322.304H1182.27V324.656H1175.6V328.664H1181.24V331.016H1175.6V335.648H1182.51V338H1172.81ZM1185.73 338V322.304H1191.03C1192.12 322.304 1193.09 322.448 1193.96 322.736C1194.84 323.024 1195.53 323.512 1196.02 324.2C1196.53 324.872 1196.79 325.792 1196.79 326.96C1196.79 328.16 1196.5 329.128 1195.93 329.864C1195.37 330.6 1194.61 331.128 1193.67 331.448L1197.41 338H1194.29L1190.91 331.856H1188.51V338H1185.73ZM1188.51 329.648H1190.74C1191.81 329.648 1192.63 329.424 1193.19 328.976C1193.77 328.512 1194.05 327.84 1194.05 326.96C1194.05 326.064 1193.77 325.44 1193.19 325.088C1192.63 324.72 1191.81 324.536 1190.74 324.536H1188.51V329.648ZM1199.67 342.368L1199.07 340.856C1199.85 340.552 1200.45 340.136 1200.87 339.608C1201.3 339.096 1201.51 338.544 1201.49 337.952C1201.46 337.952 1201.42 337.952 1201.37 337.952C1201.34 337.952 1201.31 337.952 1201.27 337.952C1200.81 337.952 1200.39 337.808 1200.03 337.52C1199.67 337.216 1199.5 336.792 1199.5 336.248C1199.5 335.736 1199.68 335.328 1200.05 335.024C1200.42 334.704 1200.85 334.544 1201.35 334.544C1202 334.544 1202.51 334.792 1202.86 335.288C1203.23 335.784 1203.41 336.48 1203.41 337.376C1203.41 338.544 1203.08 339.56 1202.43 340.424C1201.77 341.304 1200.85 341.952 1199.67 342.368ZM773.208 359.648L772.656 361.568H776.664L776.112 359.648C775.856 358.816 775.608 357.96 775.368 357.08C775.144 356.2 774.92 355.328 774.696 354.464H774.6C774.392 355.344 774.168 356.224 773.928 357.104C773.704 357.968 773.464 358.816 773.208 359.648ZM767.952 368L773.064 352.304H776.328L781.44 368H778.512L777.288 363.752H772.008L770.784 368H767.952ZM783.375 368V352.304H786.231L791.127 361.136L792.735 364.472H792.831C792.767 363.672 792.687 362.8 792.591 361.856C792.511 360.912 792.471 360 792.471 359.12V352.304H795.135V368H792.279L787.383 359.168L785.775 355.832H785.679C785.743 356.664 785.815 357.536 785.895 358.448C785.991 359.36 786.039 360.256 786.039 361.136V368H783.375ZM799.125 368V352.304H803.325C805.725 352.304 807.597 352.952 808.941 354.248C810.285 355.544 810.957 357.488 810.957 360.08C810.957 362.688 810.293 364.664 808.965 366.008C807.637 367.336 805.805 368 803.469 368H799.125ZM801.909 365.744H803.133C804.717 365.744 805.941 365.288 806.805 364.376C807.669 363.448 808.101 362.016 808.101 360.08C808.101 358.16 807.669 356.76 806.805 355.88C805.941 355 804.717 354.56 803.133 354.56H801.909V365.744ZM818.93 368V352.304H822.074L824.858 359.984C825.034 360.48 825.202 360.992 825.362 361.52C825.538 362.032 825.706 362.544 825.866 363.056H825.962C826.138 362.544 826.306 362.032 826.466 361.52C826.626 360.992 826.786 360.48 826.946 359.984L829.658 352.304H832.826V368H830.258V360.824C830.258 360.328 830.274 359.792 830.306 359.216C830.354 358.624 830.402 358.032 830.45 357.44C830.514 356.848 830.57 356.312 830.618 355.832H830.522L829.25 359.48L826.682 366.536H825.026L822.434 359.48L821.186 355.832H821.09C821.138 356.312 821.186 356.848 821.234 357.44C821.298 358.032 821.346 358.624 821.378 359.216C821.426 359.792 821.45 360.328 821.45 360.824V368H818.93ZM836.812 368V352.304H846.268V354.656H839.596V358.664H845.236V361.016H839.596V365.648H846.508V368H836.812ZM849.726 368V352.304H852.582L857.478 361.136L859.086 364.472H859.182C859.118 363.672 859.038 362.8 858.942 361.856C858.862 360.912 858.822 360 858.822 359.12V352.304H861.486V368H858.63L853.734 359.168L852.126 355.832H852.03C852.094 356.664 852.166 357.536 852.246 358.448C852.342 359.36 852.39 360.256 852.39 361.136V368H849.726ZM868.644 368V354.656H864.108V352.304H875.964V354.656H871.428V368H868.644ZM884.041 368.288C882.681 368.288 881.481 367.96 880.441 367.304C879.401 366.632 878.585 365.688 877.993 364.472C877.417 363.24 877.129 361.776 877.129 360.08C877.129 358.384 877.417 356.936 877.993 355.736C878.585 354.536 879.401 353.616 880.441 352.976C881.481 352.336 882.681 352.016 884.041 352.016C885.417 352.016 886.625 352.336 887.665 352.976C888.705 353.616 889.513 354.536 890.089 355.736C890.681 356.936 890.977 358.384 890.977 360.08C890.977 361.776 890.681 363.24 890.089 364.472C889.513 365.688 888.705 366.632 887.665 367.304C886.625 367.96 885.417 368.288 884.041 368.288ZM884.041 365.864C885.273 365.864 886.257 365.344 886.993 364.304C887.729 363.248 888.097 361.84 888.097 360.08C888.097 358.32 887.729 356.944 886.993 355.952C886.257 354.944 885.273 354.44 884.041 354.44C882.809 354.44 881.825 354.944 881.089 355.952C880.353 356.944 879.985 358.32 879.985 360.08C879.985 361.84 880.353 363.248 881.089 364.304C881.825 365.344 882.809 365.864 884.041 365.864ZM894.117 368V352.304H899.421C900.509 352.304 901.485 352.448 902.349 352.736C903.229 353.024 903.917 353.512 904.413 354.2C904.925 354.872 905.181 355.792 905.181 356.96C905.181 358.16 904.893 359.128 904.317 359.864C903.757 360.6 903.005 361.128 902.061 361.448L905.805 368H902.685L899.301 361.856H896.901V368H894.117ZM896.901 359.648H899.133C900.205 359.648 901.021 359.424 901.581 358.976C902.157 358.512 902.445 357.84 902.445 356.96C902.445 356.064 902.157 355.44 901.581 355.088C901.021 354.72 900.205 354.536 899.133 354.536H896.901V359.648ZM913.125 368V352.304H918.141C919.229 352.304 920.189 352.424 921.021 352.664C921.869 352.904 922.533 353.312 923.013 353.888C923.509 354.448 923.757 355.208 923.757 356.168C923.757 356.904 923.565 357.6 923.181 358.256C922.797 358.896 922.261 359.336 921.573 359.576V359.672C922.437 359.864 923.149 360.272 923.709 360.896C924.285 361.504 924.573 362.336 924.573 363.392C924.573 364.432 924.309 365.296 923.781 365.984C923.269 366.672 922.557 367.184 921.645 367.52C920.733 367.84 919.701 368 918.549 368H913.125ZM915.909 358.784H917.901C918.989 358.784 919.781 358.584 920.277 358.184C920.773 357.784 921.021 357.248 921.021 356.576C921.021 355.808 920.765 355.264 920.253 354.944C919.741 354.624 918.973 354.464 917.949 354.464H915.909V358.784ZM915.909 365.84H918.261C919.413 365.84 920.301 365.632 920.925 365.216C921.549 364.784 921.861 364.128 921.861 363.248C921.861 362.416 921.557 361.816 920.949 361.448C920.341 361.064 919.445 360.872 918.261 360.872H915.909V365.84ZM930.661 359.648L930.109 361.568H934.117L933.565 359.648C933.309 358.816 933.061 357.96 932.821 357.08C932.597 356.2 932.373 355.328 932.149 354.464H932.053C931.845 355.344 931.621 356.224 931.381 357.104C931.157 357.968 930.917 358.816 930.661 359.648ZM925.405 368L930.517 352.304H933.781L938.893 368H935.965L934.741 363.752H929.461L928.237 368H925.405ZM945.412 368.288C944.356 368.288 943.332 368.088 942.34 367.688C941.364 367.288 940.5 366.72 939.748 365.984L941.38 364.088C941.94 364.616 942.58 365.048 943.3 365.384C944.02 365.704 944.74 365.864 945.46 365.864C946.356 365.864 947.036 365.68 947.5 365.312C947.964 364.944 948.196 364.456 948.196 363.848C948.196 363.192 947.964 362.72 947.5 362.432C947.052 362.144 946.476 361.848 945.772 361.544L943.612 360.608C943.1 360.384 942.596 360.096 942.1 359.744C941.62 359.392 941.22 358.944 940.9 358.4C940.596 357.856 940.444 357.2 940.444 356.432C940.444 355.6 940.668 354.856 941.116 354.2C941.58 353.528 942.204 353 942.988 352.616C943.788 352.216 944.7 352.016 945.724 352.016C946.636 352.016 947.516 352.2 948.364 352.568C949.212 352.92 949.94 353.4 950.548 354.008L949.132 355.784C948.636 355.368 948.108 355.04 947.548 354.8C947.004 354.56 946.396 354.44 945.724 354.44C944.988 354.44 944.388 354.608 943.924 354.944C943.476 355.264 943.252 355.712 943.252 356.288C943.252 356.688 943.364 357.024 943.588 357.296C943.828 357.552 944.14 357.776 944.524 357.968C944.908 358.144 945.316 358.32 945.748 358.496L947.884 359.384C948.812 359.784 949.572 360.312 950.164 360.968C950.756 361.608 951.052 362.496 951.052 363.632C951.052 364.48 950.828 365.256 950.38 365.96C949.932 366.664 949.284 367.232 948.436 367.664C947.604 368.08 946.596 368.288 945.412 368.288ZM953.906 368V352.304H963.362V354.656H956.69V358.664H962.33V361.016H956.69V365.648H963.602V368H953.906ZM966.82 368V352.304H971.02C973.42 352.304 975.292 352.952 976.636 354.248C977.98 355.544 978.652 357.488 978.652 360.08C978.652 362.688 977.988 364.664 976.66 366.008C975.332 367.336 973.5 368 971.164 368H966.82ZM969.604 365.744H970.828C972.412 365.744 973.636 365.288 974.5 364.376C975.364 363.448 975.796 362.016 975.796 360.08C975.796 358.16 975.364 356.76 974.5 355.88C973.636 355 972.412 354.56 970.828 354.56H969.604V365.744ZM986.625 368V352.304H989.409V368H986.625ZM993.398 368V352.304H996.254L1001.15 361.136L1002.76 364.472H1002.85C1002.79 363.672 1002.71 362.8 1002.61 361.856C1002.53 360.912 1002.49 360 1002.49 359.12V352.304H1005.16V368H1002.3L997.406 359.168L995.798 355.832H995.702C995.766 356.664 995.838 357.536 995.918 358.448C996.014 359.36 996.062 360.256 996.062 361.136V368H993.398ZM1017.12 368V354.656H1012.58V352.304H1024.44V354.656H1019.9V368H1017.12ZM1027.05 368V352.304H1029.84V358.616H1036.2V352.304H1038.98V368H1036.2V361.04H1029.84V368H1027.05ZM1042.97 368V352.304H1052.42V354.656H1045.75V358.664H1051.39V361.016H1045.75V365.648H1052.66V368H1042.97ZM1060.69 368V352.304H1063.47V368H1060.69ZM1067.46 368V352.304H1070.32L1075.21 361.136L1076.82 364.472H1076.92C1076.85 363.672 1076.77 362.8 1076.68 361.856C1076.6 360.912 1076.56 360 1076.56 359.12V352.304H1079.22V368H1076.36L1071.47 359.168L1069.86 355.832H1069.76C1069.83 356.664 1069.9 357.536 1069.98 358.448C1070.08 359.36 1070.12 360.256 1070.12 361.136V368H1067.46ZM1083.21 368V352.304H1085.99V365.648H1092.52V368H1083.21ZM1098.47 359.648L1097.92 361.568H1101.93L1101.38 359.648C1101.12 358.816 1100.87 357.96 1100.63 357.08C1100.41 356.2 1100.19 355.328 1099.96 354.464H1099.87C1099.66 355.344 1099.43 356.224 1099.19 357.104C1098.97 357.968 1098.73 358.816 1098.47 359.648ZM1093.22 368L1098.33 352.304H1101.59L1106.71 368H1103.78L1102.55 363.752H1097.27L1096.05 368H1093.22ZM1108.64 368V352.304H1111.5L1116.39 361.136L1118 364.472H1118.1C1118.03 363.672 1117.95 362.8 1117.86 361.856C1117.78 360.912 1117.74 360 1117.74 359.12V352.304H1120.4V368H1117.54L1112.65 359.168L1111.04 355.832H1110.94C1111.01 356.664 1111.08 357.536 1111.16 358.448C1111.26 359.36 1111.3 360.256 1111.3 361.136V368H1108.64ZM1124.39 368V352.304H1128.59C1130.99 352.304 1132.86 352.952 1134.21 354.248C1135.55 355.544 1136.22 357.488 1136.22 360.08C1136.22 362.688 1135.56 364.664 1134.23 366.008C1132.9 367.336 1131.07 368 1128.73 368H1124.39ZM1127.17 365.744H1128.4C1129.98 365.744 1131.21 365.288 1132.07 364.376C1132.93 363.448 1133.37 362.016 1133.37 360.08C1133.37 358.16 1132.93 356.76 1132.07 355.88C1131.21 355 1129.98 354.56 1128.4 354.56H1127.17V365.744ZM769.992 398V382.304H772.848L777.744 391.136L779.352 394.472H779.448C779.384 393.672 779.304 392.8 779.208 391.856C779.128 390.912 779.088 390 779.088 389.12V382.304H781.752V398H778.896L774 389.168L772.392 385.832H772.296C772.36 386.664 772.432 387.536 772.512 388.448C772.608 389.36 772.656 390.256 772.656 391.136V398H769.992ZM791.838 398.288C790.478 398.288 789.278 397.96 788.238 397.304C787.198 396.632 786.382 395.688 785.79 394.472C785.214 393.24 784.926 391.776 784.926 390.08C784.926 388.384 785.214 386.936 785.79 385.736C786.382 384.536 787.198 383.616 788.238 382.976C789.278 382.336 790.478 382.016 791.838 382.016C793.214 382.016 794.422 382.336 795.462 382.976C796.502 383.616 797.31 384.536 797.886 385.736C798.478 386.936 798.774 388.384 798.774 390.08C798.774 391.776 798.478 393.24 797.886 394.472C797.31 395.688 796.502 396.632 795.462 397.304C794.422 397.96 793.214 398.288 791.838 398.288ZM791.838 395.864C793.07 395.864 794.054 395.344 794.79 394.304C795.526 393.248 795.894 391.84 795.894 390.08C795.894 388.32 795.526 386.944 794.79 385.952C794.054 384.944 793.07 384.44 791.838 384.44C790.606 384.44 789.622 384.944 788.886 385.952C788.15 386.944 787.782 388.32 787.782 390.08C787.782 391.84 788.15 393.248 788.886 394.304C789.622 395.344 790.606 395.864 791.838 395.864ZM801.914 398V382.304H807.218C808.306 382.304 809.282 382.448 810.146 382.736C811.026 383.024 811.714 383.512 812.21 384.2C812.722 384.872 812.978 385.792 812.978 386.96C812.978 388.16 812.69 389.128 812.114 389.864C811.554 390.6 810.802 391.128 809.858 391.448L813.602 398H810.482L807.098 391.856H804.698V398H801.914ZM804.698 389.648H806.93C808.002 389.648 808.818 389.424 809.378 388.976C809.954 388.512 810.242 387.84 810.242 386.96C810.242 386.064 809.954 385.44 809.378 385.088C808.818 384.72 808.002 384.536 806.93 384.536H804.698V389.648ZM818.91 398V384.656H814.374V382.304H826.23V384.656H821.694V398H818.91ZM828.844 398V382.304H831.628V388.616H837.988V382.304H840.772V398H837.988V391.04H831.628V398H828.844ZM846.318 398L843.198 382.304H846.054L847.422 390.224C847.55 391.056 847.678 391.896 847.806 392.744C847.95 393.576 848.078 394.408 848.19 395.24H848.286C848.462 394.408 848.63 393.576 848.79 392.744C848.966 391.896 849.142 391.056 849.318 390.224L851.238 382.304H853.662L855.582 390.224C855.758 391.04 855.934 391.872 856.11 392.72C856.286 393.552 856.462 394.392 856.638 395.24H856.734C856.862 394.392 856.99 393.552 857.118 392.72C857.246 391.888 857.366 391.056 857.478 390.224L858.846 382.304H861.51L858.51 398H855.054L853.11 389.744C852.982 389.136 852.854 388.528 852.726 387.92C852.614 387.312 852.51 386.712 852.414 386.12H852.318C852.206 386.712 852.086 387.312 851.958 387.92C851.846 388.528 851.726 389.136 851.598 389.744L849.702 398H846.318ZM863.953 398V382.304H873.409V384.656H866.737V388.664H872.377V391.016H866.737V395.648H873.649V398H863.953ZM881.451 398.288C880.395 398.288 879.371 398.088 878.379 397.688C877.403 397.288 876.539 396.72 875.787 395.984L877.419 394.088C877.979 394.616 878.619 395.048 879.339 395.384C880.059 395.704 880.779 395.864 881.499 395.864C882.395 395.864 883.075 395.68 883.539 395.312C884.003 394.944 884.235 394.456 884.235 393.848C884.235 393.192 884.003 392.72 883.539 392.432C883.091 392.144 882.515 391.848 881.811 391.544L879.651 390.608C879.139 390.384 878.635 390.096 878.139 389.744C877.659 389.392 877.259 388.944 876.939 388.4C876.635 387.856 876.483 387.2 876.483 386.432C876.483 385.6 876.707 384.856 877.155 384.2C877.619 383.528 878.243 383 879.027 382.616C879.827 382.216 880.739 382.016 881.763 382.016C882.675 382.016 883.555 382.2 884.403 382.568C885.251 382.92 885.979 383.4 886.587 384.008L885.171 385.784C884.675 385.368 884.147 385.04 883.587 384.8C883.043 384.56 882.435 384.44 881.763 384.44C881.027 384.44 880.427 384.608 879.963 384.944C879.515 385.264 879.291 385.712 879.291 386.288C879.291 386.688 879.403 387.024 879.627 387.296C879.867 387.552 880.179 387.776 880.563 387.968C880.947 388.144 881.355 388.32 881.787 388.496L883.923 389.384C884.851 389.784 885.611 390.312 886.203 390.968C886.795 391.608 887.091 392.496 887.091 393.632C887.091 394.48 886.867 395.256 886.419 395.96C885.971 396.664 885.323 397.232 884.475 397.664C883.643 398.08 882.635 398.288 881.451 398.288ZM892.644 398V384.656H888.108V382.304H899.964V384.656H895.428V398H892.644ZM901.226 398.288C900.73 398.288 900.306 398.112 899.954 397.76C899.602 397.408 899.426 396.96 899.426 396.416C899.426 395.872 899.602 395.424 899.954 395.072C900.306 394.72 900.73 394.544 901.226 394.544C901.738 394.544 902.162 394.72 902.498 395.072C902.834 395.424 903.002 395.872 903.002 396.416C903.002 396.96 902.834 397.408 902.498 397.76C902.162 398.112 901.738 398.288 901.226 398.288ZM911.32 398V382.304H914.104V398H911.32ZM922.898 398V382.304H932.354V384.656H925.682V388.664H931.322V391.016H925.682V395.648H932.594V398H922.898ZM935.812 398V382.304H938.668L943.564 391.136L945.172 394.472H945.268C945.204 393.672 945.124 392.8 945.028 391.856C944.948 390.912 944.908 390 944.908 389.12V382.304H947.572V398H944.716L939.82 389.168L938.212 385.832H938.116C938.18 386.664 938.252 387.536 938.332 388.448C938.428 389.36 938.476 390.256 938.476 391.136V398H935.812ZM954.826 398.288C953.738 398.288 952.81 398.064 952.042 397.616C951.274 397.168 950.642 396.504 950.146 395.624L952.066 394.208C952.386 394.784 952.754 395.208 953.17 395.48C953.586 395.736 954.034 395.864 954.514 395.864C955.25 395.864 955.802 395.64 956.17 395.192C956.538 394.744 956.722 393.96 956.722 392.84V382.304H959.506V393.08C959.506 394.024 959.346 394.896 959.026 395.696C958.706 396.48 958.202 397.112 957.514 397.592C956.826 398.056 955.93 398.288 954.826 398.288ZM969.518 398.288C968.158 398.288 966.958 397.96 965.918 397.304C964.878 396.632 964.062 395.688 963.47 394.472C962.894 393.24 962.606 391.776 962.606 390.08C962.606 388.384 962.894 386.936 963.47 385.736C964.062 384.536 964.878 383.616 965.918 382.976C966.958 382.336 968.158 382.016 969.518 382.016C970.894 382.016 972.102 382.336 973.142 382.976C974.182 383.616 974.99 384.536 975.566 385.736C976.158 386.936 976.454 388.384 976.454 390.08C976.454 391.776 976.158 393.24 975.566 394.472C974.99 395.688 974.182 396.632 973.142 397.304C972.102 397.96 970.894 398.288 969.518 398.288ZM969.518 395.864C970.75 395.864 971.734 395.344 972.47 394.304C973.206 393.248 973.574 391.84 973.574 390.08C973.574 388.32 973.206 386.944 972.47 385.952C971.734 384.944 970.75 384.44 969.518 384.44C968.286 384.44 967.302 384.944 966.566 385.952C965.83 386.944 965.462 388.32 965.462 390.08C965.462 391.84 965.83 393.248 966.566 394.304C967.302 395.344 968.286 395.864 969.518 395.864ZM981.741 398V392.168L977.037 382.304H980.013L981.717 386.312C981.941 386.904 982.165 387.48 982.389 388.04C982.613 388.584 982.853 389.16 983.109 389.768H983.205C983.461 389.16 983.709 388.584 983.949 388.04C984.189 387.48 984.421 386.904 984.645 386.312L986.349 382.304H989.253L984.525 392.168V398H981.741ZM1002.22 398.288C1000.9 398.288 999.713 397.976 998.641 397.352C997.569 396.728 996.713 395.816 996.073 394.616C995.449 393.4 995.137 391.928 995.137 390.2C995.137 388.488 995.457 387.024 996.097 385.808C996.753 384.576 997.625 383.64 998.713 383C999.801 382.344 1001 382.016 1002.31 382.016C1003.3 382.016 1004.18 382.216 1004.95 382.616C1005.72 383.016 1006.35 383.48 1006.85 384.008L1005.36 385.808C1004.96 385.392 1004.51 385.064 1004.02 384.824C1003.54 384.568 1002.99 384.44 1002.38 384.44C1001.54 384.44 1000.78 384.672 1000.1 385.136C999.449 385.584 998.929 386.232 998.545 387.08C998.177 387.928 997.993 388.944 997.993 390.128C997.993 391.92 998.385 393.328 999.169 394.352C999.953 395.36 1001 395.864 1002.31 395.864C1003.02 395.864 1003.64 395.72 1004.18 395.432C1004.73 395.128 1005.22 394.736 1005.67 394.256L1007.16 396.008C1006.52 396.744 1005.78 397.312 1004.95 397.712C1004.14 398.096 1003.22 398.288 1002.22 398.288ZM1009.78 398V382.304H1015.09C1016.17 382.304 1017.15 382.448 1018.01 382.736C1018.89 383.024 1019.58 383.512 1020.08 384.2C1020.59 384.872 1020.85 385.792 1020.85 386.96C1020.85 388.16 1020.56 389.128 1019.98 389.864C1019.42 390.6 1018.67 391.128 1017.73 391.448L1021.47 398H1018.35L1014.97 391.856H1012.57V398H1009.78ZM1012.57 389.648H1014.8C1015.87 389.648 1016.69 389.424 1017.25 388.976C1017.82 388.512 1018.11 387.84 1018.11 386.96C1018.11 386.064 1017.82 385.44 1017.25 385.088C1016.69 384.72 1015.87 384.536 1014.8 384.536H1012.57V389.648ZM1027.06 389.648L1026.51 391.568H1030.52L1029.96 389.648C1029.71 388.816 1029.46 387.96 1029.22 387.08C1029 386.2 1028.77 385.328 1028.55 384.464H1028.45C1028.24 385.344 1028.02 386.224 1027.78 387.104C1027.56 387.968 1027.32 388.816 1027.06 389.648ZM1021.8 398L1026.92 382.304H1030.18L1035.29 398H1032.36L1031.14 393.752H1025.86L1024.64 398H1021.8ZM1037.23 398V382.304H1046.71V384.656H1040.01V389.096H1045.72V391.448H1040.01V398H1037.23ZM1052.63 398V384.656H1048.09V382.304H1059.95V384.656H1055.41V398H1052.63ZM1062.56 398V382.304H1065.35V398H1062.56ZM1069.34 398V382.304H1072.19L1077.09 391.136L1078.7 394.472H1078.79C1078.73 393.672 1078.65 392.8 1078.55 391.856C1078.47 390.912 1078.43 390 1078.43 389.12V382.304H1081.1V398H1078.24L1073.34 389.168L1071.74 385.832H1071.64C1071.7 386.664 1071.78 387.536 1071.86 388.448C1071.95 389.36 1072 390.256 1072 391.136V398H1069.34ZM1091.66 398.288C1090.25 398.288 1088.99 397.976 1087.87 397.352C1086.75 396.728 1085.87 395.816 1085.23 394.616C1084.59 393.4 1084.27 391.928 1084.27 390.2C1084.27 388.488 1084.6 387.024 1085.25 385.808C1085.91 384.576 1086.8 383.64 1087.92 383C1089.04 382.344 1090.29 382.016 1091.69 382.016C1092.81 382.016 1093.75 382.224 1094.52 382.64C1095.3 383.04 1095.94 383.496 1096.44 384.008L1094.95 385.808C1094.55 385.424 1094.1 385.104 1093.61 384.848C1093.13 384.576 1092.52 384.44 1091.78 384.44C1090.39 384.44 1089.26 384.952 1088.4 385.976C1087.55 386.984 1087.13 388.368 1087.13 390.128C1087.13 391.92 1087.53 393.328 1088.35 394.352C1089.17 395.36 1090.36 395.864 1091.93 395.864C1092.37 395.864 1092.8 395.808 1093.2 395.696C1093.6 395.568 1093.93 395.392 1094.18 395.168V391.784H1091.21V389.504H1096.68V396.416C1096.15 396.944 1095.45 397.392 1094.57 397.76C1093.7 398.112 1092.73 398.288 1091.66 398.288ZM769.992 428V412.304H773.136L775.92 419.984C776.096 420.48 776.264 420.992 776.424 421.52C776.6 422.032 776.768 422.544 776.928 423.056H777.024C777.2 422.544 777.368 422.032 777.528 421.52C777.688 420.992 777.848 420.48 778.008 419.984L780.72 412.304H783.888V428H781.32V420.824C781.32 420.328 781.336 419.792 781.368 419.216C781.416 418.624 781.464 418.032 781.512 417.44C781.576 416.848 781.632 416.312 781.68 415.832H781.584L780.312 419.48L777.744 426.536H776.088L773.496 419.48L772.248 415.832H772.152C772.2 416.312 772.248 416.848 772.296 417.44C772.36 418.032 772.408 418.624 772.44 419.216C772.488 419.792 772.512 420.328 772.512 420.824V428H769.992ZM787.875 428V412.304H797.331V414.656H790.659V418.664H796.299V421.016H790.659V425.648H797.571V428H787.875ZM800.789 428V412.304H803.933L806.717 419.984C806.893 420.48 807.061 420.992 807.221 421.52C807.397 422.032 807.565 422.544 807.725 423.056H807.821C807.997 422.544 808.165 422.032 808.325 421.52C808.485 420.992 808.645 420.48 808.805 419.984L811.517 412.304H814.685V428H812.117V420.824C812.117 420.328 812.133 419.792 812.165 419.216C812.213 418.624 812.261 418.032 812.309 417.44C812.373 416.848 812.429 416.312 812.477 415.832H812.381L811.109 419.48L808.541 426.536H806.885L804.293 419.48L803.045 415.832H802.949C802.997 416.312 803.045 416.848 803.093 417.44C803.157 418.032 803.205 418.624 803.237 419.216C803.285 419.792 803.309 420.328 803.309 420.824V428H800.789ZM824.768 428.288C823.408 428.288 822.208 427.96 821.168 427.304C820.128 426.632 819.312 425.688 818.72 424.472C818.144 423.24 817.856 421.776 817.856 420.08C817.856 418.384 818.144 416.936 818.72 415.736C819.312 414.536 820.128 413.616 821.168 412.976C822.208 412.336 823.408 412.016 824.768 412.016C826.144 412.016 827.352 412.336 828.392 412.976C829.432 413.616 830.24 414.536 830.816 415.736C831.408 416.936 831.704 418.384 831.704 420.08C831.704 421.776 831.408 423.24 830.816 424.472C830.24 425.688 829.432 426.632 828.392 427.304C827.352 427.96 826.144 428.288 824.768 428.288ZM824.768 425.864C826 425.864 826.984 425.344 827.72 424.304C828.456 423.248 828.824 421.84 828.824 420.08C828.824 418.32 828.456 416.944 827.72 415.952C826.984 414.944 826 414.44 824.768 414.44C823.536 414.44 822.552 414.944 821.816 415.952C821.08 416.944 820.712 418.32 820.712 420.08C820.712 421.84 821.08 423.248 821.816 424.304C822.552 425.344 823.536 425.864 824.768 425.864ZM834.844 428V412.304H840.148C841.236 412.304 842.212 412.448 843.076 412.736C843.956 413.024 844.644 413.512 845.14 414.2C845.652 414.872 845.908 415.792 845.908 416.96C845.908 418.16 845.62 419.128 845.044 419.864C844.484 420.6 843.732 421.128 842.788 421.448L846.532 428H843.412L840.028 421.856H837.628V428H834.844ZM837.628 419.648H839.86C840.932 419.648 841.748 419.424 842.308 418.976C842.884 418.512 843.172 417.84 843.172 416.96C843.172 416.064 842.884 415.44 842.308 415.088C841.748 414.72 840.932 414.536 839.86 414.536H837.628V419.648ZM852.122 419.648L851.57 421.568H855.578L855.026 419.648C854.77 418.816 854.522 417.96 854.282 417.08C854.058 416.2 853.834 415.328 853.61 414.464H853.514C853.306 415.344 853.082 416.224 852.842 417.104C852.618 417.968 852.378 418.816 852.122 419.648ZM846.866 428L851.978 412.304H855.242L860.354 428H857.426L856.202 423.752H850.922L849.698 428H846.866ZM862.289 428V412.304H867.305C868.393 412.304 869.353 412.424 870.185 412.664C871.033 412.904 871.697 413.312 872.177 413.888C872.673 414.448 872.921 415.208 872.921 416.168C872.921 416.904 872.729 417.6 872.345 418.256C871.961 418.896 871.425 419.336 870.737 419.576V419.672C871.601 419.864 872.313 420.272 872.873 420.896C873.449 421.504 873.737 422.336 873.737 423.392C873.737 424.432 873.473 425.296 872.945 425.984C872.433 426.672 871.721 427.184 870.809 427.52C869.897 427.84 868.865 428 867.713 428H862.289ZM865.073 418.784H867.065C868.153 418.784 868.945 418.584 869.441 418.184C869.937 417.784 870.185 417.248 870.185 416.576C870.185 415.808 869.929 415.264 869.417 414.944C868.905 414.624 868.137 414.464 867.113 414.464H865.073V418.784ZM865.073 425.84H867.425C868.577 425.84 869.465 425.632 870.089 425.216C870.713 424.784 871.025 424.128 871.025 423.248C871.025 422.416 870.721 421.816 870.113 421.448C869.505 421.064 868.609 420.872 867.425 420.872H865.073V425.84ZM876.609 428V412.304H879.393V425.648H885.921V428H876.609ZM888.656 428V412.304H898.112V414.656H891.44V418.664H897.08V421.016H891.44V425.648H898.352V428H888.656ZM901.306 432.368L900.706 430.856C901.49 430.552 902.09 430.136 902.506 429.608C902.938 429.096 903.146 428.544 903.13 427.952C903.098 427.952 903.058 427.952 903.01 427.952C902.978 427.952 902.946 427.952 902.914 427.952C902.45 427.952 902.034 427.808 901.666 427.52C901.314 427.216 901.138 426.792 901.138 426.248C901.138 425.736 901.322 425.328 901.69 425.024C902.058 424.704 902.49 424.544 902.986 424.544C903.642 424.544 904.146 424.792 904.498 425.288C904.866 425.784 905.05 426.48 905.05 427.376C905.05 428.544 904.722 429.56 904.066 430.424C903.41 431.304 902.49 431.952 901.306 432.368ZM916.2 419.648L915.648 421.568H919.656L919.104 419.648C918.848 418.816 918.6 417.96 918.36 417.08C918.136 416.2 917.912 415.328 917.688 414.464H917.592C917.384 415.344 917.16 416.224 916.92 417.104C916.696 417.968 916.456 418.816 916.2 419.648ZM910.944 428L916.056 412.304H919.32L924.432 428H921.504L920.28 423.752H915L913.776 428H910.944ZM932.397 428.288C931.085 428.288 929.893 427.976 928.821 427.352C927.749 426.728 926.893 425.816 926.253 424.616C925.629 423.4 925.317 421.928 925.317 420.2C925.317 418.488 925.637 417.024 926.277 415.808C926.933 414.576 927.805 413.64 928.893 413C929.981 412.344 931.181 412.016 932.493 412.016C933.485 412.016 934.365 412.216 935.133 412.616C935.901 413.016 936.533 413.48 937.029 414.008L935.541 415.808C935.141 415.392 934.693 415.064 934.197 414.824C933.717 414.568 933.173 414.44 932.565 414.44C931.717 414.44 930.957 414.672 930.285 415.136C929.629 415.584 929.109 416.232 928.725 417.08C928.357 417.928 928.173 418.944 928.173 420.128C928.173 421.92 928.565 423.328 929.349 424.352C930.133 425.36 931.181 425.864 932.493 425.864C933.197 425.864 933.821 425.72 934.365 425.432C934.909 425.128 935.405 424.736 935.853 424.256L937.341 426.008C936.701 426.744 935.965 427.312 935.133 427.712C934.317 428.096 933.405 428.288 932.397 428.288ZM945.428 428.288C944.116 428.288 942.924 427.976 941.852 427.352C940.78 426.728 939.924 425.816 939.284 424.616C938.66 423.4 938.348 421.928 938.348 420.2C938.348 418.488 938.668 417.024 939.308 415.808C939.964 414.576 940.836 413.64 941.924 413C943.012 412.344 944.212 412.016 945.524 412.016C946.516 412.016 947.396 412.216 948.164 412.616C948.932 413.016 949.564 413.48 950.06 414.008L948.572 415.808C948.172 415.392 947.724 415.064 947.228 414.824C946.748 414.568 946.204 414.44 945.596 414.44C944.748 414.44 943.988 414.672 943.316 415.136C942.66 415.584 942.14 416.232 941.756 417.08C941.388 417.928 941.204 418.944 941.204 420.128C941.204 421.92 941.596 423.328 942.38 424.352C943.164 425.36 944.212 425.864 945.524 425.864C946.228 425.864 946.852 425.72 947.396 425.432C947.94 425.128 948.436 424.736 948.884 424.256L950.372 426.008C949.732 426.744 948.996 427.312 948.164 427.712C947.348 428.096 946.436 428.288 945.428 428.288ZM952.992 428V412.304H962.448V414.656H955.776V418.664H961.416V421.016H955.776V425.648H962.688V428H952.992ZM970.49 428.288C969.434 428.288 968.41 428.088 967.418 427.688C966.442 427.288 965.578 426.72 964.826 425.984L966.458 424.088C967.018 424.616 967.658 425.048 968.378 425.384C969.098 425.704 969.818 425.864 970.538 425.864C971.434 425.864 972.114 425.68 972.578 425.312C973.042 424.944 973.274 424.456 973.274 423.848C973.274 423.192 973.042 422.72 972.578 422.432C972.13 422.144 971.554 421.848 970.85 421.544L968.69 420.608C968.178 420.384 967.674 420.096 967.178 419.744C966.698 419.392 966.298 418.944 965.978 418.4C965.674 417.856 965.522 417.2 965.522 416.432C965.522 415.6 965.746 414.856 966.194 414.2C966.658 413.528 967.282 413 968.066 412.616C968.866 412.216 969.778 412.016 970.802 412.016C971.714 412.016 972.594 412.2 973.442 412.568C974.29 412.92 975.018 413.4 975.626 414.008L974.21 415.784C973.714 415.368 973.186 415.04 972.626 414.8C972.082 414.56 971.474 414.44 970.802 414.44C970.066 414.44 969.466 414.608 969.002 414.944C968.554 415.264 968.33 415.712 968.33 416.288C968.33 416.688 968.442 417.024 968.666 417.296C968.906 417.552 969.218 417.776 969.602 417.968C969.986 418.144 970.394 418.32 970.826 418.496L972.962 419.384C973.89 419.784 974.65 420.312 975.242 420.968C975.834 421.608 976.13 422.496 976.13 423.632C976.13 424.48 975.906 425.256 975.458 425.96C975.01 426.664 974.362 427.232 973.514 427.664C972.682 428.08 971.674 428.288 970.49 428.288ZM983.193 428.288C982.137 428.288 981.113 428.088 980.121 427.688C979.145 427.288 978.281 426.72 977.529 425.984L979.161 424.088C979.721 424.616 980.361 425.048 981.081 425.384C981.801 425.704 982.521 425.864 983.241 425.864C984.137 425.864 984.817 425.68 985.281 425.312C985.745 424.944 985.977 424.456 985.977 423.848C985.977 423.192 985.745 422.72 985.281 422.432C984.833 422.144 984.257 421.848 983.553 421.544L981.393 420.608C980.881 420.384 980.377 420.096 979.881 419.744C979.401 419.392 979.001 418.944 978.681 418.4C978.377 417.856 978.225 417.2 978.225 416.432C978.225 415.6 978.449 414.856 978.897 414.2C979.361 413.528 979.985 413 980.769 412.616C981.569 412.216 982.481 412.016 983.505 412.016C984.417 412.016 985.297 412.2 986.145 412.568C986.993 412.92 987.721 413.4 988.329 414.008L986.913 415.784C986.417 415.368 985.889 415.04 985.329 414.8C984.785 414.56 984.177 414.44 983.505 414.44C982.769 414.44 982.169 414.608 981.705 414.944C981.257 415.264 981.033 415.712 981.033 416.288C981.033 416.688 981.145 417.024 981.369 417.296C981.609 417.552 981.921 417.776 982.305 417.968C982.689 418.144 983.097 418.32 983.529 418.496L985.665 419.384C986.593 419.784 987.353 420.312 987.945 420.968C988.537 421.608 988.833 422.496 988.833 423.632C988.833 424.48 988.609 425.256 988.161 425.96C987.713 426.664 987.065 427.232 986.217 427.664C985.385 428.08 984.377 428.288 983.193 428.288ZM991.687 428V412.304H994.471V428H991.687ZM998.461 428V412.304H1003.48C1004.56 412.304 1005.52 412.424 1006.36 412.664C1007.2 412.904 1007.87 413.312 1008.35 413.888C1008.84 414.448 1009.09 415.208 1009.09 416.168C1009.09 416.904 1008.9 417.6 1008.52 418.256C1008.13 418.896 1007.6 419.336 1006.91 419.576V419.672C1007.77 419.864 1008.48 420.272 1009.04 420.896C1009.62 421.504 1009.91 422.336 1009.91 423.392C1009.91 424.432 1009.64 425.296 1009.12 425.984C1008.6 426.672 1007.89 427.184 1006.98 427.52C1006.07 427.84 1005.04 428 1003.88 428H998.461ZM1001.24 418.784H1003.24C1004.32 418.784 1005.12 418.584 1005.61 418.184C1006.11 417.784 1006.36 417.248 1006.36 416.576C1006.36 415.808 1006.1 415.264 1005.59 414.944C1005.08 414.624 1004.31 414.464 1003.28 414.464H1001.24V418.784ZM1001.24 425.84H1003.6C1004.75 425.84 1005.64 425.632 1006.26 425.216C1006.88 424.784 1007.2 424.128 1007.2 423.248C1007.2 422.416 1006.89 421.816 1006.28 421.448C1005.68 421.064 1004.78 420.872 1003.6 420.872H1001.24V425.84ZM1012.78 428V412.304H1015.57V425.648H1022.09V428H1012.78ZM1024.83 428V412.304H1034.28V414.656H1027.61V418.664H1033.25V421.016H1027.61V425.648H1034.52V428H1024.83ZM1037.48 432.368L1036.88 430.856C1037.66 430.552 1038.26 430.136 1038.68 429.608C1039.11 429.096 1039.32 428.544 1039.3 427.952C1039.27 427.952 1039.23 427.952 1039.18 427.952C1039.15 427.952 1039.12 427.952 1039.09 427.952C1038.62 427.952 1038.21 427.808 1037.84 427.52C1037.49 427.216 1037.31 426.792 1037.31 426.248C1037.31 425.736 1037.49 425.328 1037.86 425.024C1038.23 424.704 1038.66 424.544 1039.16 424.544C1039.81 424.544 1040.32 424.792 1040.67 425.288C1041.04 425.784 1041.22 426.48 1041.22 427.376C1041.22 428.544 1040.89 429.56 1040.24 430.424C1039.58 431.304 1038.66 431.952 1037.48 432.368ZM1052.37 419.648L1051.82 421.568H1055.83L1055.28 419.648C1055.02 418.816 1054.77 417.96 1054.53 417.08C1054.31 416.2 1054.08 415.328 1053.86 414.464H1053.76C1053.56 415.344 1053.33 416.224 1053.09 417.104C1052.87 417.968 1052.63 418.816 1052.37 419.648ZM1047.12 428L1052.23 412.304H1055.49L1060.6 428H1057.68L1056.45 423.752H1051.17L1049.95 428H1047.12ZM1062.54 428V412.304H1065.39L1070.29 421.136L1071.9 424.472H1071.99C1071.93 423.672 1071.85 422.8 1071.75 421.856C1071.67 420.912 1071.63 420 1071.63 419.12V412.304H1074.3V428H1071.44L1066.55 419.168L1064.94 415.832H1064.84C1064.91 416.664 1064.98 417.536 1065.06 418.448C1065.15 419.36 1065.2 420.256 1065.2 421.136V428H1062.54ZM1078.29 428V412.304H1082.49C1084.89 412.304 1086.76 412.952 1088.1 414.248C1089.45 415.544 1090.12 417.488 1090.12 420.08C1090.12 422.688 1089.46 424.664 1088.13 426.008C1086.8 427.336 1084.97 428 1082.63 428H1078.29ZM1081.07 425.744H1082.3C1083.88 425.744 1085.1 425.288 1085.97 424.376C1086.83 423.448 1087.26 422.016 1087.26 420.08C1087.26 418.16 1086.83 416.76 1085.97 415.88C1085.1 415 1083.88 414.56 1082.3 414.56H1081.07V425.744ZM1098.09 428V412.304H1100.88V428H1098.09ZM1104.87 428V412.304H1107.72L1112.62 421.136L1114.23 424.472H1114.32C1114.26 423.672 1114.18 422.8 1114.08 421.856C1114 420.912 1113.96 420 1113.96 419.12V412.304H1116.63V428H1113.77L1108.88 419.168L1107.27 415.832H1107.17C1107.24 416.664 1107.31 417.536 1107.39 418.448C1107.48 419.36 1107.53 420.256 1107.53 421.136V428H1104.87ZM1126.88 428.288C1125.57 428.288 1124.38 427.976 1123.31 427.352C1122.23 426.728 1121.38 425.816 1120.74 424.616C1120.11 423.4 1119.8 421.928 1119.8 420.2C1119.8 418.488 1120.12 417.024 1120.76 415.808C1121.42 414.576 1122.29 413.64 1123.38 413C1124.47 412.344 1125.67 412.016 1126.98 412.016C1127.97 412.016 1128.85 412.216 1129.62 412.616C1130.39 413.016 1131.02 413.48 1131.51 414.008L1130.03 415.808C1129.63 415.392 1129.18 415.064 1128.68 414.824C1128.2 414.568 1127.66 414.44 1127.05 414.44C1126.2 414.44 1125.44 414.672 1124.77 415.136C1124.11 415.584 1123.59 416.232 1123.21 417.08C1122.84 417.928 1122.66 418.944 1122.66 420.128C1122.66 421.92 1123.05 423.328 1123.83 424.352C1124.62 425.36 1125.67 425.864 1126.98 425.864C1127.68 425.864 1128.31 425.72 1128.85 425.432C1129.39 425.128 1129.89 424.736 1130.34 424.256L1131.83 426.008C1131.19 426.744 1130.45 427.312 1129.62 427.712C1128.8 428.096 1127.89 428.288 1126.88 428.288ZM1134.45 428V412.304H1137.23V425.648H1143.76V428H1134.45ZM1151.58 428.288C1150.38 428.288 1149.33 428.048 1148.43 427.568C1147.54 427.088 1146.84 426.32 1146.34 425.264C1145.86 424.208 1145.62 422.824 1145.62 421.112V412.304H1148.41V421.328C1148.41 422.464 1148.54 423.368 1148.79 424.04C1149.06 424.696 1149.44 425.168 1149.92 425.456C1150.4 425.728 1150.95 425.864 1151.58 425.864C1152.22 425.864 1152.78 425.728 1153.26 425.456C1153.75 425.168 1154.14 424.696 1154.41 424.04C1154.7 423.368 1154.84 422.464 1154.84 421.328V412.304H1157.5V421.112C1157.5 422.824 1157.26 424.208 1156.78 425.264C1156.3 426.32 1155.62 427.088 1154.72 427.568C1153.84 428.048 1152.79 428.288 1151.58 428.288ZM1165.77 428.288C1164.72 428.288 1163.69 428.088 1162.7 427.688C1161.72 427.288 1160.86 426.72 1160.11 425.984L1161.74 424.088C1162.3 424.616 1162.94 425.048 1163.66 425.384C1164.38 425.704 1165.1 425.864 1165.82 425.864C1166.72 425.864 1167.4 425.68 1167.86 425.312C1168.32 424.944 1168.56 424.456 1168.56 423.848C1168.56 423.192 1168.32 422.72 1167.86 422.432C1167.41 422.144 1166.84 421.848 1166.13 421.544L1163.97 420.608C1163.46 420.384 1162.96 420.096 1162.46 419.744C1161.98 419.392 1161.58 418.944 1161.26 418.4C1160.96 417.856 1160.8 417.2 1160.8 416.432C1160.8 415.6 1161.03 414.856 1161.48 414.2C1161.94 413.528 1162.56 413 1163.35 412.616C1164.15 412.216 1165.06 412.016 1166.08 412.016C1167 412.016 1167.88 412.2 1168.72 412.568C1169.57 412.92 1170.3 413.4 1170.91 414.008L1169.49 415.784C1169 415.368 1168.47 415.04 1167.91 414.8C1167.36 414.56 1166.76 414.44 1166.08 414.44C1165.35 414.44 1164.75 414.608 1164.28 414.944C1163.84 415.264 1163.61 415.712 1163.61 416.288C1163.61 416.688 1163.72 417.024 1163.95 417.296C1164.19 417.552 1164.5 417.776 1164.88 417.968C1165.27 418.144 1165.68 418.32 1166.11 418.496L1168.24 419.384C1169.17 419.784 1169.93 420.312 1170.52 420.968C1171.12 421.608 1171.41 422.496 1171.41 423.632C1171.41 424.48 1171.19 425.256 1170.74 425.96C1170.29 426.664 1169.64 427.232 1168.8 427.664C1167.96 428.08 1166.96 428.288 1165.77 428.288ZM1174.27 428V412.304H1177.05V428H1174.27ZM1183.85 428L1178.95 412.304H1181.9L1184.11 420.2C1184.37 421.08 1184.6 421.928 1184.81 422.744C1185.01 423.56 1185.25 424.416 1185.5 425.312H1185.6C1185.87 424.416 1186.1 423.56 1186.29 422.744C1186.5 421.928 1186.73 421.08 1186.97 420.2L1189.15 412.304H1192.01L1187.13 428H1183.85ZM1193.91 428V412.304H1203.36V414.656H1196.69V418.664H1202.33V421.016H1196.69V425.648H1203.6V428H1193.91ZM769.992 458V442.304H774.192C776.592 442.304 778.464 442.952 779.808 444.248C781.152 445.544 781.824 447.488 781.824 450.08C781.824 452.688 781.16 454.664 779.832 456.008C778.504 457.336 776.672 458 774.336 458H769.992ZM772.776 455.744H774C775.584 455.744 776.808 455.288 777.672 454.376C778.536 453.448 778.968 452.016 778.968 450.08C778.968 448.16 778.536 446.76 777.672 445.88C776.808 445 775.584 444.56 774 444.56H772.776V455.744ZM784.992 458V442.304H787.776V458H784.992ZM798.341 458.288C796.933 458.288 795.669 457.976 794.549 457.352C793.429 456.728 792.549 455.816 791.909 454.616C791.269 453.4 790.949 451.928 790.949 450.2C790.949 448.488 791.277 447.024 791.933 445.808C792.589 444.576 793.477 443.64 794.597 443C795.717 442.344 796.973 442.016 798.365 442.016C799.485 442.016 800.429 442.224 801.197 442.64C801.981 443.04 802.621 443.496 803.117 444.008L801.629 445.808C801.229 445.424 800.781 445.104 800.285 444.848C799.805 444.576 799.197 444.44 798.461 444.44C797.069 444.44 795.941 444.952 795.077 445.976C794.229 446.984 793.805 448.368 793.805 450.128C793.805 451.92 794.213 453.328 795.029 454.352C795.845 455.36 797.037 455.864 798.605 455.864C799.053 455.864 799.477 455.808 799.877 455.696C800.277 455.568 800.605 455.392 800.861 455.168V451.784H797.885V449.504H803.357V456.416C802.829 456.944 802.125 457.392 801.245 457.76C800.381 458.112 799.413 458.288 798.341 458.288ZM806.836 458V442.304H809.62V458H806.836ZM816.777 458V444.656H812.241V442.304H824.097V444.656H819.561V458H816.777ZM828.966 449.648L828.414 451.568H832.422L831.87 449.648C831.614 448.816 831.366 447.96 831.126 447.08C830.902 446.2 830.678 445.328 830.454 444.464H830.358C830.15 445.344 829.926 446.224 829.686 447.104C829.462 447.968 829.222 448.816 828.966 449.648ZM823.71 458L828.822 442.304H832.086L837.198 458H834.27L833.046 453.752H827.766L826.542 458H823.71ZM839.133 458V442.304H841.917V455.648H848.445V458H839.133ZM855.984 458V442.304H865.44V444.656H858.768V448.664H864.408V451.016H858.768V455.648H865.68V458H855.984ZM867.218 458L871.682 449.912L867.506 442.304H870.602L872.33 445.784C872.522 446.136 872.706 446.512 872.882 446.912C873.074 447.296 873.29 447.72 873.53 448.184H873.626C873.818 447.72 873.994 447.296 874.154 446.912C874.33 446.512 874.506 446.136 874.682 445.784L876.338 442.304H879.29L875.114 450.032L879.578 458H876.482L874.562 454.304C874.354 453.888 874.146 453.48 873.938 453.08C873.746 452.664 873.53 452.216 873.29 451.736H873.194C872.986 452.216 872.786 452.664 872.594 453.08C872.418 453.48 872.234 453.888 872.042 454.304L870.17 458H867.218ZM881.883 458V442.304H886.827C887.995 442.304 889.035 442.456 889.947 442.76C890.859 443.064 891.579 443.568 892.107 444.272C892.635 444.976 892.899 445.936 892.899 447.152C892.899 448.304 892.635 449.256 892.107 450.008C891.579 450.76 890.867 451.32 889.971 451.688C889.075 452.056 888.059 452.24 886.923 452.24H884.667V458H881.883ZM884.667 450.008H886.707C889.011 450.008 890.163 449.056 890.163 447.152C890.163 446.16 889.859 445.48 889.251 445.112C888.659 444.728 887.779 444.536 886.611 444.536H884.667V450.008ZM895.851 458V442.304H905.307V444.656H898.635V448.664H904.275V451.016H898.635V455.648H905.547V458H895.851ZM908.765 458V442.304H914.069C915.157 442.304 916.133 442.448 916.997 442.736C917.877 443.024 918.565 443.512 919.061 444.2C919.573 444.872 919.829 445.792 919.829 446.96C919.829 448.16 919.541 449.128 918.965 449.864C918.405 450.6 917.653 451.128 916.709 451.448L920.453 458H917.333L913.949 451.856H911.549V458H908.765ZM911.549 449.648H913.781C914.853 449.648 915.669 449.424 916.229 448.976C916.805 448.512 917.093 447.84 917.093 446.96C917.093 446.064 916.805 445.44 916.229 445.088C915.669 444.72 914.853 444.536 913.781 444.536H911.549V449.648ZM922.969 458V442.304H925.753V458H922.969ZM929.742 458V442.304H939.198V444.656H932.526V448.664H938.166V451.016H932.526V455.648H939.438V458H929.742ZM942.656 458V442.304H945.512L950.408 451.136L952.016 454.472H952.112C952.048 453.672 951.968 452.8 951.872 451.856C951.792 450.912 951.752 450 951.752 449.12V442.304H954.416V458H951.56L946.664 449.168L945.056 445.832H944.96C945.024 446.664 945.096 447.536 945.176 448.448C945.272 449.36 945.32 450.256 945.32 451.136V458H942.656ZM964.67 458.288C963.358 458.288 962.166 457.976 961.094 457.352C960.022 456.728 959.166 455.816 958.526 454.616C957.902 453.4 957.59 451.928 957.59 450.2C957.59 448.488 957.91 447.024 958.55 445.808C959.206 444.576 960.078 443.64 961.166 443C962.254 442.344 963.454 442.016 964.766 442.016C965.758 442.016 966.638 442.216 967.406 442.616C968.174 443.016 968.806 443.48 969.302 444.008L967.814 445.808C967.414 445.392 966.966 445.064 966.47 444.824C965.99 444.568 965.446 444.44 964.838 444.44C963.99 444.44 963.23 444.672 962.558 445.136C961.902 445.584 961.382 446.232 960.998 447.08C960.63 447.928 960.446 448.944 960.446 450.128C960.446 451.92 960.838 453.328 961.622 454.352C962.406 455.36 963.454 455.864 964.766 455.864C965.47 455.864 966.094 455.72 966.638 455.432C967.182 455.128 967.678 454.736 968.126 454.256L969.614 456.008C968.974 456.744 968.238 457.312 967.406 457.712C966.59 458.096 965.678 458.288 964.67 458.288ZM972.234 458V442.304H981.69V444.656H975.018V448.664H980.658V451.016H975.018V455.648H981.93V458H972.234ZM989.732 458.288C988.676 458.288 987.652 458.088 986.66 457.688C985.684 457.288 984.82 456.72 984.068 455.984L985.7 454.088C986.26 454.616 986.9 455.048 987.62 455.384C988.34 455.704 989.06 455.864 989.78 455.864C990.676 455.864 991.356 455.68 991.82 455.312C992.284 454.944 992.516 454.456 992.516 453.848C992.516 453.192 992.284 452.72 991.82 452.432C991.372 452.144 990.796 451.848 990.092 451.544L987.932 450.608C987.42 450.384 986.916 450.096 986.42 449.744C985.94 449.392 985.54 448.944 985.22 448.4C984.916 447.856 984.764 447.2 984.764 446.432C984.764 445.6 984.988 444.856 985.436 444.2C985.9 443.528 986.524 443 987.308 442.616C988.108 442.216 989.02 442.016 990.044 442.016C990.956 442.016 991.836 442.2 992.684 442.568C993.532 442.92 994.26 443.4 994.868 444.008L993.452 445.784C992.956 445.368 992.428 445.04 991.868 444.8C991.324 444.56 990.716 444.44 990.044 444.44C989.308 444.44 988.708 444.608 988.244 444.944C987.796 445.264 987.572 445.712 987.572 446.288C987.572 446.688 987.684 447.024 987.908 447.296C988.148 447.552 988.46 447.776 988.844 447.968C989.228 448.144 989.636 448.32 990.068 448.496L992.204 449.384C993.132 449.784 993.892 450.312 994.484 450.968C995.076 451.608 995.372 452.496 995.372 453.632C995.372 454.48 995.148 455.256 994.7 455.96C994.252 456.664 993.604 457.232 992.756 457.664C991.924 458.08 990.916 458.288 989.732 458.288ZM1003.03 458V442.304H1012.51V444.656H1005.82V449.096H1011.53V451.448H1005.82V458H1003.03ZM1021.13 458.288C1019.77 458.288 1018.57 457.96 1017.53 457.304C1016.49 456.632 1015.67 455.688 1015.08 454.472C1014.5 453.24 1014.22 451.776 1014.22 450.08C1014.22 448.384 1014.5 446.936 1015.08 445.736C1015.67 444.536 1016.49 443.616 1017.53 442.976C1018.57 442.336 1019.77 442.016 1021.13 442.016C1022.5 442.016 1023.71 442.336 1024.75 442.976C1025.79 443.616 1026.6 444.536 1027.18 445.736C1027.77 446.936 1028.06 448.384 1028.06 450.08C1028.06 451.776 1027.77 453.24 1027.18 454.472C1026.6 455.688 1025.79 456.632 1024.75 457.304C1023.71 457.96 1022.5 458.288 1021.13 458.288ZM1021.13 455.864C1022.36 455.864 1023.34 455.344 1024.08 454.304C1024.82 453.248 1025.18 451.84 1025.18 450.08C1025.18 448.32 1024.82 446.944 1024.08 445.952C1023.34 444.944 1022.36 444.44 1021.13 444.44C1019.9 444.44 1018.91 444.944 1018.18 445.952C1017.44 446.944 1017.07 448.32 1017.07 450.08C1017.07 451.84 1017.44 453.248 1018.18 454.304C1018.91 455.344 1019.9 455.864 1021.13 455.864ZM1031.2 458V442.304H1036.51C1037.59 442.304 1038.57 442.448 1039.43 442.736C1040.31 443.024 1041 443.512 1041.5 444.2C1042.01 444.872 1042.27 445.792 1042.27 446.96C1042.27 448.16 1041.98 449.128 1041.4 449.864C1040.84 450.6 1040.09 451.128 1039.15 451.448L1042.89 458H1039.77L1036.39 451.856H1033.99V458H1031.2ZM1033.99 449.648H1036.22C1037.29 449.648 1038.11 449.424 1038.67 448.976C1039.24 448.512 1039.53 447.84 1039.53 446.96C1039.53 446.064 1039.24 445.44 1038.67 445.088C1038.11 444.72 1037.29 444.536 1036.22 444.536H1033.99V449.648ZM1056.09 458.288C1054.89 458.288 1053.84 458.048 1052.95 457.568C1052.05 457.088 1051.35 456.32 1050.86 455.264C1050.38 454.208 1050.14 452.824 1050.14 451.112V442.304H1052.92V451.328C1052.92 452.464 1053.05 453.368 1053.31 454.04C1053.58 454.696 1053.95 455.168 1054.43 455.456C1054.91 455.728 1055.47 455.864 1056.09 455.864C1056.73 455.864 1057.29 455.728 1057.77 455.456C1058.27 455.168 1058.65 454.696 1058.92 454.04C1059.21 453.368 1059.35 452.464 1059.35 451.328V442.304H1062.02V451.112C1062.02 452.824 1061.78 454.208 1061.3 455.264C1060.82 456.32 1060.13 457.088 1059.23 457.568C1058.35 458.048 1057.31 458.288 1056.09 458.288ZM1070.29 458.288C1069.23 458.288 1068.21 458.088 1067.21 457.688C1066.24 457.288 1065.37 456.72 1064.62 455.984L1066.25 454.088C1066.81 454.616 1067.45 455.048 1068.17 455.384C1068.89 455.704 1069.61 455.864 1070.33 455.864C1071.23 455.864 1071.91 455.68 1072.37 455.312C1072.84 454.944 1073.07 454.456 1073.07 453.848C1073.07 453.192 1072.84 452.72 1072.37 452.432C1071.93 452.144 1071.35 451.848 1070.65 451.544L1068.49 450.608C1067.97 450.384 1067.47 450.096 1066.97 449.744C1066.49 449.392 1066.09 448.944 1065.77 448.4C1065.47 447.856 1065.32 447.2 1065.32 446.432C1065.32 445.6 1065.54 444.856 1065.99 444.2C1066.45 443.528 1067.08 443 1067.86 442.616C1068.66 442.216 1069.57 442.016 1070.6 442.016C1071.51 442.016 1072.39 442.2 1073.24 442.568C1074.09 442.92 1074.81 443.4 1075.42 444.008L1074.01 445.784C1073.51 445.368 1072.98 445.04 1072.42 444.8C1071.88 444.56 1071.27 444.44 1070.6 444.44C1069.86 444.44 1069.26 444.608 1068.8 444.944C1068.35 445.264 1068.13 445.712 1068.13 446.288C1068.13 446.688 1068.24 447.024 1068.46 447.296C1068.7 447.552 1069.01 447.776 1069.4 447.968C1069.78 448.144 1070.19 448.32 1070.62 448.496L1072.76 449.384C1073.69 449.784 1074.45 450.312 1075.04 450.968C1075.63 451.608 1075.93 452.496 1075.93 453.632C1075.93 454.48 1075.7 455.256 1075.25 455.96C1074.81 456.664 1074.16 457.232 1073.31 457.664C1072.48 458.08 1071.47 458.288 1070.29 458.288ZM1078.78 458V442.304H1088.24V444.656H1081.57V448.664H1087.21V451.016H1081.57V455.648H1088.48V458H1078.78ZM1091.7 458V442.304H1097C1098.09 442.304 1099.06 442.448 1099.93 442.736C1100.81 443.024 1101.5 443.512 1101.99 444.2C1102.5 444.872 1102.76 445.792 1102.76 446.96C1102.76 448.16 1102.47 449.128 1101.9 449.864C1101.34 450.6 1100.58 451.128 1099.64 451.448L1103.38 458H1100.26L1096.88 451.856H1094.48V458H1091.7ZM1094.48 449.648H1096.71C1097.78 449.648 1098.6 449.424 1099.16 448.976C1099.74 448.512 1100.02 447.84 1100.02 446.96C1100.02 446.064 1099.74 445.44 1099.16 445.088C1098.6 444.72 1097.78 444.536 1096.71 444.536H1094.48V449.648ZM1110.15 458.288C1109.1 458.288 1108.07 458.088 1107.08 457.688C1106.11 457.288 1105.24 456.72 1104.49 455.984L1106.12 454.088C1106.68 454.616 1107.32 455.048 1108.04 455.384C1108.76 455.704 1109.48 455.864 1110.2 455.864C1111.1 455.864 1111.78 455.68 1112.24 455.312C1112.71 454.944 1112.94 454.456 1112.94 453.848C1112.94 453.192 1112.71 452.72 1112.24 452.432C1111.79 452.144 1111.22 451.848 1110.51 451.544L1108.35 450.608C1107.84 450.384 1107.34 450.096 1106.84 449.744C1106.36 449.392 1105.96 448.944 1105.64 448.4C1105.34 447.856 1105.19 447.2 1105.19 446.432C1105.19 445.6 1105.41 444.856 1105.86 444.2C1106.32 443.528 1106.95 443 1107.73 442.616C1108.53 442.216 1109.44 442.016 1110.47 442.016C1111.38 442.016 1112.26 442.2 1113.11 442.568C1113.95 442.92 1114.68 443.4 1115.29 444.008L1113.87 445.784C1113.38 445.368 1112.85 445.04 1112.29 444.8C1111.75 444.56 1111.14 444.44 1110.47 444.44C1109.73 444.44 1109.13 444.608 1108.67 444.944C1108.22 445.264 1107.99 445.712 1107.99 446.288C1107.99 446.688 1108.11 447.024 1108.33 447.296C1108.57 447.552 1108.88 447.776 1109.27 447.968C1109.65 448.144 1110.06 448.32 1110.49 448.496L1112.63 449.384C1113.55 449.784 1114.31 450.312 1114.91 450.968C1115.5 451.608 1115.79 452.496 1115.79 453.632C1115.79 454.48 1115.57 455.256 1115.12 455.96C1114.67 456.664 1114.03 457.232 1113.18 457.664C1112.35 458.08 1111.34 458.288 1110.15 458.288ZM1119.97 458.288C1119.47 458.288 1119.05 458.112 1118.7 457.76C1118.34 457.408 1118.17 456.96 1118.17 456.416C1118.17 455.872 1118.34 455.424 1118.7 455.072C1119.05 454.72 1119.47 454.544 1119.97 454.544C1120.48 454.544 1120.9 454.72 1121.24 455.072C1121.58 455.424 1121.74 455.872 1121.74 456.416C1121.74 456.96 1121.58 457.408 1121.24 457.76C1120.9 458.112 1120.48 458.288 1119.97 458.288Z" fill="#072F38"/>
<path d="M776 487H997.002" stroke="#E68C3A" stroke-width="10" stroke-linecap="round"/>
<path d="M337.1 189.2C407.295 189.2 464.2 132.295 464.2 62.1C464.2 -8.09539 407.295 -65 337.1 -65C266.905 -65 210 -8.09539 210 62.1C210 132.295 266.905 189.2 337.1 189.2Z" fill="#E68C3A"/>
</g>
<defs>
<clipPath id="clip0_39_148">
<rect width="1280" height="566" fill="white"/>
</clipPath>
</defs>
</svg>
