<svg width="1052" height="566" viewBox="0 0 1052 566" fill="none" xmlns="http://www.w3.org/2000/svg">
<rect width="1052" height="566" fill="#FAFAFA"/>
<path d="M543.285 371V319.438H563.91V329.486H553.656V337.689H563.383V347.621H553.656V371H543.285ZM567.074 371V327.055H577.738V331.947C578.246 330.248 579.145 328.92 580.434 327.963C581.723 327.006 583.344 326.527 585.297 326.527V335.287C584.438 335.287 583.412 335.385 582.221 335.58C581.029 335.756 579.984 336.01 579.086 336.342C578.188 336.654 577.738 337.006 577.738 337.396V371H567.074ZM600.648 371.469C591.898 371.469 587.523 366.928 587.523 357.846V340.209C587.523 336.068 588.686 332.768 591.01 330.307C593.334 327.826 596.547 326.586 600.648 326.586C604.77 326.586 607.992 327.826 610.316 330.307C612.641 332.768 613.803 336.068 613.803 340.209V357.846C613.803 366.928 609.418 371.469 600.648 371.469ZM600.648 363.383C601.527 363.383 602.152 363.07 602.523 362.445C602.914 361.801 603.109 360.99 603.109 360.014V338.539C603.109 335.98 602.289 334.701 600.648 334.701C599.008 334.701 598.188 335.98 598.188 338.539V360.014C598.188 360.99 598.373 361.801 598.744 362.445C599.135 363.07 599.77 363.383 600.648 363.383ZM617.699 371V327.055H628.188V332.65C628.578 330.971 629.301 329.545 630.355 328.373C631.43 327.182 632.914 326.586 634.809 326.586C637.855 326.586 640.062 327.523 641.43 329.398C642.816 331.273 643.51 333.842 643.51 337.104V371H633.168V338.188C633.168 337.328 632.992 336.537 632.641 335.814C632.289 335.072 631.684 334.701 630.824 334.701C630.023 334.701 629.428 334.984 629.037 335.551C628.666 336.098 628.432 336.791 628.334 337.631C628.236 338.451 628.188 339.271 628.188 340.092V371H617.699ZM656.664 371.469C653.832 371.469 651.918 370.873 650.922 369.682C649.945 368.471 649.457 366.625 649.457 364.145V336.752H646.498V328.754H649.457V319.438H659.652V328.754H662.611V336.752H659.652V361.684C659.652 362.406 659.77 362.914 660.004 363.207C660.238 363.5 660.688 363.646 661.352 363.646C661.82 363.646 662.24 363.607 662.611 363.529V370.678C662.377 370.756 661.645 370.902 660.414 371.117C659.184 371.352 657.934 371.469 656.664 371.469ZM680.219 371V319.438H700.844V329.398H690.707V339.447H700.434V349.145H690.707V360.951H701.518V371H680.219ZM704.77 371V327.055H715.258V332.65C715.648 330.971 716.371 329.545 717.426 328.373C718.5 327.182 719.984 326.586 721.879 326.586C724.926 326.586 727.133 327.523 728.5 329.398C729.887 331.273 730.58 333.842 730.58 337.104V371H720.238V338.188C720.238 337.328 720.062 336.537 719.711 335.814C719.359 335.072 718.754 334.701 717.895 334.701C717.094 334.701 716.498 334.984 716.107 335.551C715.736 336.098 715.502 336.791 715.404 337.631C715.307 338.451 715.258 339.271 715.258 340.092V371H704.77ZM743.354 371.469C741.322 371.469 739.711 371.098 738.52 370.355C737.328 369.613 736.439 368.588 735.854 367.279C735.268 365.971 734.877 364.438 734.682 362.68C734.506 360.922 734.418 359.037 734.418 357.025V337.924C734.418 334.545 735.014 331.811 736.205 329.721C737.416 327.631 739.457 326.586 742.328 326.586C744.457 326.586 746.088 327.045 747.221 327.963C748.373 328.861 749.262 330.121 749.887 331.742V319.438H760.551V371H749.887V366.342C749.301 367.924 748.52 369.174 747.543 370.092C746.586 371.01 745.189 371.469 743.354 371.469ZM747.367 363.266C748.363 363.266 749.027 362.865 749.359 362.064C749.711 361.264 749.887 359.828 749.887 357.758V339.271C749.887 338.236 749.73 337.221 749.418 336.225C749.125 335.209 748.461 334.701 747.426 334.701C746.293 334.701 745.58 335.18 745.287 336.137C744.994 337.094 744.848 338.139 744.848 339.271V357.758C744.848 361.43 745.688 363.266 747.367 363.266ZM778.832 371V319.438H793.012C796.723 319.438 799.516 320.473 801.391 322.543C803.266 324.594 804.203 327.602 804.203 331.566V355.707C804.203 360.59 803.344 364.359 801.625 367.016C799.926 369.672 796.938 371 792.66 371H778.832ZM789.203 361.889H790.99C792.885 361.889 793.832 360.971 793.832 359.135V332.533C793.832 330.814 793.598 329.711 793.129 329.223C792.68 328.715 791.752 328.461 790.346 328.461H789.203V361.889ZM820.551 371.469C817.426 371.469 814.936 370.883 813.08 369.711C811.225 368.539 809.896 366.85 809.096 364.643C808.295 362.436 807.895 359.779 807.895 356.674V339.008C807.895 334.926 809.066 331.84 811.41 329.75C813.754 327.641 816.977 326.586 821.078 326.586C829.516 326.586 833.734 330.727 833.734 339.008V342.201C833.734 346.068 833.695 348.666 833.617 349.994H818.383V358.49C818.383 359.271 818.432 360.043 818.529 360.805C818.627 361.547 818.842 362.162 819.174 362.65C819.525 363.139 820.082 363.383 820.844 363.383C821.938 363.383 822.621 362.914 822.895 361.977C823.168 361.02 823.305 359.779 823.305 358.256V354.037H833.734V356.527C833.734 359.809 833.324 362.562 832.504 364.789C831.703 366.996 830.336 368.666 828.402 369.799C826.488 370.912 823.871 371.469 820.551 371.469ZM818.324 344.779H823.305V338.861C823.305 337.279 823.109 336.146 822.719 335.463C822.328 334.76 821.742 334.408 820.961 334.408C820.121 334.408 819.467 334.74 818.998 335.404C818.549 336.068 818.324 337.221 818.324 338.861V344.779ZM849.584 371.469C840.912 371.469 836.576 367.074 836.576 358.285V354.799H847.123V359.955C847.123 360.951 847.318 361.732 847.709 362.299C848.1 362.865 848.725 363.148 849.584 363.148C851.107 363.148 851.869 362.006 851.869 359.721C851.869 357.807 851.469 356.381 850.668 355.443C849.867 354.486 848.891 353.568 847.738 352.689L842.143 348.383C840.385 347.016 839.047 345.57 838.129 344.047C837.211 342.523 836.752 340.404 836.752 337.689C836.752 335.17 837.348 333.09 838.539 331.449C839.75 329.809 841.342 328.588 843.314 327.787C845.307 326.986 847.455 326.586 849.76 326.586C858.275 326.586 862.533 330.834 862.533 339.33V340.15H851.693V338.48C851.693 337.602 851.537 336.752 851.225 335.932C850.932 335.111 850.346 334.701 849.467 334.701C847.982 334.701 847.24 335.482 847.24 337.045C847.24 338.627 847.865 339.867 849.115 340.766L855.619 345.512C857.65 346.977 859.35 348.715 860.717 350.727C862.104 352.738 862.797 355.414 862.797 358.754C862.797 362.895 861.615 366.049 859.252 368.217C856.908 370.385 853.686 371.469 849.584 371.469ZM865.961 324.359V315.629H876.449V324.359H865.961ZM865.961 371V327.055H876.449V371H865.961ZM892.445 378.617C890.414 378.617 888.666 378.51 887.201 378.295C885.756 378.1 884.457 377.738 883.305 377.211C882.152 376.684 881 375.941 879.848 374.984L883.393 368.92C885.951 370.443 888.51 371.205 891.068 371.205C892.748 371.205 893.998 370.668 894.818 369.594C895.639 368.52 896.049 367.123 896.049 365.404V361.098C895.209 364.105 892.973 365.609 889.34 365.609C887.25 365.609 885.561 365.111 884.271 364.115C882.982 363.119 882.045 361.771 881.459 360.072C880.873 358.373 880.58 356.479 880.58 354.389V338.598C880.58 336.234 880.834 334.154 881.342 332.357C881.85 330.541 882.738 329.125 884.008 328.109C885.277 327.094 887.055 326.586 889.34 326.586C891.273 326.586 892.777 327.074 893.852 328.051C894.945 329.027 895.678 330.346 896.049 332.006V327.055H906.742V364.73C906.742 369.711 905.59 373.266 903.285 375.395C901 377.543 897.387 378.617 892.445 378.617ZM893.588 357.699C895.229 357.699 896.049 356.215 896.049 353.246V338.305C896.049 337.504 895.814 336.684 895.346 335.844C894.896 335.004 894.271 334.584 893.471 334.584C892.455 334.584 891.82 334.965 891.566 335.727C891.312 336.469 891.186 337.328 891.186 338.305V353.246C891.186 354.301 891.312 355.307 891.566 356.264C891.84 357.221 892.514 357.699 893.588 357.699ZM910.844 371V327.055H921.332V332.65C921.723 330.971 922.445 329.545 923.5 328.373C924.574 327.182 926.059 326.586 927.953 326.586C931 326.586 933.207 327.523 934.574 329.398C935.961 331.273 936.654 333.842 936.654 337.104V371H926.312V338.188C926.312 337.328 926.137 336.537 925.785 335.814C925.434 335.072 924.828 334.701 923.969 334.701C923.168 334.701 922.572 334.984 922.182 335.551C921.811 336.098 921.576 336.791 921.479 337.631C921.381 338.451 921.332 339.271 921.332 340.092V371H910.844ZM953.09 371.469C949.965 371.469 947.475 370.883 945.619 369.711C943.764 368.539 942.436 366.85 941.635 364.643C940.834 362.436 940.434 359.779 940.434 356.674V339.008C940.434 334.926 941.605 331.84 943.949 329.75C946.293 327.641 949.516 326.586 953.617 326.586C962.055 326.586 966.273 330.727 966.273 339.008V342.201C966.273 346.068 966.234 348.666 966.156 349.994H950.922V358.49C950.922 359.271 950.971 360.043 951.068 360.805C951.166 361.547 951.381 362.162 951.713 362.65C952.064 363.139 952.621 363.383 953.383 363.383C954.477 363.383 955.16 362.914 955.434 361.977C955.707 361.02 955.844 359.779 955.844 358.256V354.037H966.273V356.527C966.273 359.809 965.863 362.562 965.043 364.789C964.242 366.996 962.875 368.666 960.941 369.799C959.027 370.912 956.41 371.469 953.09 371.469ZM950.863 344.779H955.844V338.861C955.844 337.279 955.648 336.146 955.258 335.463C954.867 334.76 954.281 334.408 953.5 334.408C952.66 334.408 952.006 334.74 951.537 335.404C951.088 336.068 950.863 337.221 950.863 338.861V344.779ZM970.082 371V327.055H980.746V331.947C981.254 330.248 982.152 328.92 983.441 327.963C984.73 327.006 986.352 326.527 988.305 326.527V335.287C987.445 335.287 986.42 335.385 985.229 335.58C984.037 335.756 982.992 336.01 982.094 336.342C981.195 336.654 980.746 337.006 980.746 337.396V371H970.082Z" fill="#072F38"/>
<path d="M683.309 464.615C680.105 464.615 677.586 463.375 675.75 460.895C673.934 458.414 673.025 454.996 673.025 450.641C673.025 447.535 673.299 444.957 673.846 442.906C674.412 440.855 675.193 439.146 676.189 437.779C677.186 436.412 678.328 435.221 679.617 434.205L679.383 433.619C678.562 431.588 677.84 429.654 677.215 427.818C676.609 425.963 676.307 424.059 676.307 422.105C676.307 420.133 676.727 418.385 677.566 416.861C678.406 415.338 679.568 414.146 681.053 413.287C682.557 412.408 684.275 411.969 686.209 411.969C688.123 411.969 689.861 412.389 691.424 413.229C693.006 414.049 694.266 415.289 695.203 416.949C696.141 418.609 696.609 420.709 696.609 423.248C696.609 426.002 696.092 428.307 695.057 430.162C694.041 432.018 692.508 433.805 690.457 435.523L693.27 442.613C694.422 439.703 696.082 437.447 698.25 435.846L702.322 442.203C700.057 444.02 698.162 446.979 696.639 451.08L701.795 464H691.834L690.691 461.217C689.93 462.154 688.904 462.955 687.615 463.619C686.346 464.283 684.91 464.615 683.309 464.615ZM685.506 421.197C685.506 421.705 685.633 422.457 685.887 423.453C686.141 424.43 686.736 426.129 687.674 428.551C688.045 428.16 688.377 427.545 688.67 426.705C688.963 425.865 689.109 424.713 689.109 423.248C689.109 421.744 688.924 420.689 688.553 420.084C688.201 419.479 687.732 419.176 687.146 419.176C686.58 419.176 686.16 419.391 685.887 419.82C685.633 420.23 685.506 420.689 685.506 421.197ZM681.99 451.9C681.99 455.377 682.977 457.115 684.949 457.115C685.75 457.115 686.395 456.822 686.883 456.236C687.371 455.631 687.703 455.006 687.879 454.361L682.957 442.379C682.312 443.746 681.99 446.139 681.99 449.557V451.9ZM719.578 464V412.438H733.758C737.469 412.438 740.262 413.473 742.137 415.543C744.012 417.594 744.949 420.602 744.949 424.566V448.707C744.949 453.59 744.09 457.359 742.371 460.016C740.672 462.672 737.684 464 733.406 464H719.578ZM729.949 454.889H731.736C733.631 454.889 734.578 453.971 734.578 452.135V425.533C734.578 423.814 734.344 422.711 733.875 422.223C733.426 421.715 732.498 421.461 731.092 421.461H729.949V454.889ZM761.297 464.469C758.172 464.469 755.682 463.883 753.826 462.711C751.971 461.539 750.643 459.85 749.842 457.643C749.041 455.436 748.641 452.779 748.641 449.674V432.008C748.641 427.926 749.812 424.84 752.156 422.75C754.5 420.641 757.723 419.586 761.824 419.586C770.262 419.586 774.48 423.727 774.48 432.008V435.201C774.48 439.068 774.441 441.666 774.363 442.994H759.129V451.49C759.129 452.271 759.178 453.043 759.275 453.805C759.373 454.547 759.588 455.162 759.92 455.65C760.271 456.139 760.828 456.383 761.59 456.383C762.684 456.383 763.367 455.914 763.641 454.977C763.914 454.02 764.051 452.779 764.051 451.256V447.037H774.48V449.527C774.48 452.809 774.07 455.562 773.25 457.789C772.449 459.996 771.082 461.666 769.148 462.799C767.234 463.912 764.617 464.469 761.297 464.469ZM759.07 437.779H764.051V431.861C764.051 430.279 763.855 429.146 763.465 428.463C763.074 427.76 762.488 427.408 761.707 427.408C760.867 427.408 760.213 427.74 759.744 428.404C759.295 429.068 759.07 430.221 759.07 431.861V437.779ZM783.885 464L776.824 420.055H787.342L789.861 449.41L792.703 420.055H803.191L796.014 464H783.885ZM818.25 464.469C815.125 464.469 812.635 463.883 810.779 462.711C808.924 461.539 807.596 459.85 806.795 457.643C805.994 455.436 805.594 452.779 805.594 449.674V432.008C805.594 427.926 806.766 424.84 809.109 422.75C811.453 420.641 814.676 419.586 818.777 419.586C827.215 419.586 831.434 423.727 831.434 432.008V435.201C831.434 439.068 831.395 441.666 831.316 442.994H816.082V451.49C816.082 452.271 816.131 453.043 816.229 453.805C816.326 454.547 816.541 455.162 816.873 455.65C817.225 456.139 817.781 456.383 818.543 456.383C819.637 456.383 820.32 455.914 820.594 454.977C820.867 454.02 821.004 452.779 821.004 451.256V447.037H831.434V449.527C831.434 452.809 831.023 455.562 830.203 457.789C829.402 459.996 828.035 461.666 826.102 462.799C824.188 463.912 821.57 464.469 818.25 464.469ZM816.023 437.779H821.004V431.861C821.004 430.279 820.809 429.146 820.418 428.463C820.027 427.76 819.441 427.408 818.66 427.408C817.82 427.408 817.166 427.74 816.697 428.404C816.248 429.068 816.023 430.221 816.023 431.861V437.779ZM835.242 464V412.438H845.906V464H835.242ZM862.898 464.469C854.148 464.469 849.773 459.928 849.773 450.846V433.209C849.773 429.068 850.936 425.768 853.26 423.307C855.584 420.826 858.797 419.586 862.898 419.586C867.02 419.586 870.242 420.826 872.566 423.307C874.891 425.768 876.053 429.068 876.053 433.209V450.846C876.053 459.928 871.668 464.469 862.898 464.469ZM862.898 456.383C863.777 456.383 864.402 456.07 864.773 455.445C865.164 454.801 865.359 453.99 865.359 453.014V431.539C865.359 428.98 864.539 427.701 862.898 427.701C861.258 427.701 860.438 428.98 860.438 431.539V453.014C860.438 453.99 860.623 454.801 860.994 455.445C861.385 456.07 862.02 456.383 862.898 456.383ZM879.949 471.324V420.055H890.613V424.742C891.258 423.121 892.146 421.861 893.279 420.963C894.432 420.045 896.072 419.586 898.201 419.586C901.072 419.586 903.094 420.631 904.266 422.721C905.457 424.811 906.053 427.545 906.053 430.924V452.545C906.053 454.791 905.73 456.822 905.086 458.639C904.461 460.436 903.465 461.861 902.098 462.916C900.75 463.951 898.982 464.469 896.795 464.469C893.943 464.469 891.883 462.75 890.613 459.312V471.324H879.949ZM893.104 456.295C894.197 456.295 894.852 455.748 895.066 454.654C895.301 453.561 895.418 452.213 895.418 450.611V433.443C895.418 431.822 895.301 430.475 895.066 429.4C894.852 428.307 894.197 427.76 893.104 427.76C891.971 427.76 891.268 428.316 890.994 429.43C890.74 430.523 890.613 431.861 890.613 433.443V450.611C890.613 452.193 890.74 453.541 890.994 454.654C891.268 455.748 891.971 456.295 893.104 456.295ZM922.371 464.469C919.246 464.469 916.756 463.883 914.9 462.711C913.045 461.539 911.717 459.85 910.916 457.643C910.115 455.436 909.715 452.779 909.715 449.674V432.008C909.715 427.926 910.887 424.84 913.23 422.75C915.574 420.641 918.797 419.586 922.898 419.586C931.336 419.586 935.555 423.727 935.555 432.008V435.201C935.555 439.068 935.516 441.666 935.438 442.994H920.203V451.49C920.203 452.271 920.252 453.043 920.35 453.805C920.447 454.547 920.662 455.162 920.994 455.65C921.346 456.139 921.902 456.383 922.664 456.383C923.758 456.383 924.441 455.914 924.715 454.977C924.988 454.02 925.125 452.779 925.125 451.256V447.037H935.555V449.527C935.555 452.809 935.145 455.562 934.324 457.789C933.523 459.996 932.156 461.666 930.223 462.799C928.309 463.912 925.691 464.469 922.371 464.469ZM920.145 437.779H925.125V431.861C925.125 430.279 924.93 429.146 924.539 428.463C924.148 427.76 923.562 427.408 922.781 427.408C921.941 427.408 921.287 427.74 920.818 428.404C920.369 429.068 920.145 430.221 920.145 431.861V437.779ZM939.363 464V420.055H950.027V424.947C950.535 423.248 951.434 421.92 952.723 420.963C954.012 420.006 955.633 419.527 957.586 419.527V428.287C956.727 428.287 955.701 428.385 954.51 428.58C953.318 428.756 952.273 429.01 951.375 429.342C950.477 429.654 950.027 430.006 950.027 430.396V464H939.363Z" fill="#072F38"/>
<path d="M338.625 130V78.4375H359.25V88.3984H349.113V98.4473H358.84V108.145H349.113V119.951H359.924V130H338.625ZM361.301 130L369.357 106.387L362.033 86.0254H372.727L376.506 96.6895L380.227 86.0254H388.02L380.461 107.764L388.371 130H377.854L373.4 117.637L369.24 130H361.301ZM390.715 137.324V86.0547H401.379V90.7422C402.023 89.1211 402.912 87.8613 404.045 86.9629C405.197 86.0449 406.838 85.5859 408.967 85.5859C411.838 85.5859 413.859 86.6309 415.031 88.7207C416.223 90.8105 416.818 93.5449 416.818 96.9238V118.545C416.818 120.791 416.496 122.822 415.852 124.639C415.227 126.436 414.23 127.861 412.863 128.916C411.516 129.951 409.748 130.469 407.561 130.469C404.709 130.469 402.648 128.75 401.379 125.312V137.324H390.715ZM403.869 122.295C404.963 122.295 405.617 121.748 405.832 120.654C406.066 119.561 406.184 118.213 406.184 116.611V99.4434C406.184 97.8223 406.066 96.4746 405.832 95.4004C405.617 94.3066 404.963 93.7598 403.869 93.7598C402.736 93.7598 402.033 94.3164 401.76 95.4297C401.506 96.5234 401.379 97.8613 401.379 99.4434V116.611C401.379 118.193 401.506 119.541 401.76 120.654C402.033 121.748 402.736 122.295 403.869 122.295ZM433.137 130.469C430.012 130.469 427.521 129.883 425.666 128.711C423.811 127.539 422.482 125.85 421.682 123.643C420.881 121.436 420.48 118.779 420.48 115.674V98.0078C420.48 93.9258 421.652 90.8398 423.996 88.75C426.34 86.6406 429.562 85.5859 433.664 85.5859C442.102 85.5859 446.32 89.7266 446.32 98.0078V101.201C446.32 105.068 446.281 107.666 446.203 108.994H430.969V117.49C430.969 118.271 431.018 119.043 431.115 119.805C431.213 120.547 431.428 121.162 431.76 121.65C432.111 122.139 432.668 122.383 433.43 122.383C434.523 122.383 435.207 121.914 435.48 120.977C435.754 120.02 435.891 118.779 435.891 117.256V113.037H446.32V115.527C446.32 118.809 445.91 121.562 445.09 123.789C444.289 125.996 442.922 127.666 440.988 128.799C439.074 129.912 436.457 130.469 433.137 130.469ZM430.91 103.779H435.891V97.8613C435.891 96.2793 435.695 95.1465 435.305 94.4629C434.914 93.7598 434.328 93.4082 433.547 93.4082C432.707 93.4082 432.053 93.7402 431.584 94.4043C431.135 95.0684 430.91 96.2207 430.91 97.8613V103.779ZM450.129 130V86.0547H460.793V90.9473C461.301 89.248 462.199 87.9199 463.488 86.9629C464.777 86.0059 466.398 85.5273 468.352 85.5273V94.2871C467.492 94.2871 466.467 94.3848 465.275 94.5801C464.084 94.7559 463.039 95.0098 462.141 95.3418C461.242 95.6543 460.793 96.0059 460.793 96.3965V130H450.129ZM470.871 83.3594V74.6289H481.359V83.3594H470.871ZM470.871 130V86.0547H481.359V130H470.871ZM497.824 130.469C494.699 130.469 492.209 129.883 490.354 128.711C488.498 127.539 487.17 125.85 486.369 123.643C485.568 121.436 485.168 118.779 485.168 115.674V98.0078C485.168 93.9258 486.34 90.8398 488.684 88.75C491.027 86.6406 494.25 85.5859 498.352 85.5859C506.789 85.5859 511.008 89.7266 511.008 98.0078V101.201C511.008 105.068 510.969 107.666 510.891 108.994H495.656V117.49C495.656 118.271 495.705 119.043 495.803 119.805C495.9 120.547 496.115 121.162 496.447 121.65C496.799 122.139 497.355 122.383 498.117 122.383C499.211 122.383 499.895 121.914 500.168 120.977C500.441 120.02 500.578 118.779 500.578 117.256V113.037H511.008V115.527C511.008 118.809 510.598 121.562 509.777 123.789C508.977 125.996 507.609 127.666 505.676 128.799C503.762 129.912 501.145 130.469 497.824 130.469ZM495.598 103.779H500.578V97.8613C500.578 96.2793 500.383 95.1465 499.992 94.4629C499.602 93.7598 499.016 93.4082 498.234 93.4082C497.395 93.4082 496.74 93.7402 496.271 94.4043C495.822 95.0684 495.598 96.2207 495.598 97.8613V103.779ZM514.816 130V86.0547H525.305V91.6504C525.695 89.9707 526.418 88.5449 527.473 87.373C528.547 86.1816 530.031 85.5859 531.926 85.5859C534.973 85.5859 537.18 86.5234 538.547 88.3984C539.934 90.2734 540.627 92.8418 540.627 96.1035V130H530.285V97.1875C530.285 96.3281 530.109 95.5371 529.758 94.8145C529.406 94.0723 528.801 93.7012 527.941 93.7012C527.141 93.7012 526.545 93.9844 526.154 94.5508C525.783 95.0977 525.549 95.791 525.451 96.6309C525.354 97.4512 525.305 98.2715 525.305 99.0918V130H514.816ZM557.971 130.469C553.049 130.469 549.553 129.209 547.482 126.689C545.432 124.17 544.406 120.469 544.406 115.586V102.051C544.406 98.3789 544.797 95.3223 545.578 92.8809C546.359 90.4395 547.727 88.6133 549.68 87.4023C551.633 86.1914 554.348 85.5859 557.824 85.5859C560.246 85.5859 562.414 86.0156 564.328 86.875C566.262 87.7344 567.785 88.9941 568.898 90.6543C570.012 92.3145 570.568 94.3457 570.568 96.748V103.457H559.875V97.3047C559.875 96.2891 559.729 95.4395 559.436 94.7559C559.143 94.0527 558.508 93.7012 557.531 93.7012C555.812 93.7012 554.953 94.9219 554.953 97.3633V118.662C554.953 119.561 555.148 120.391 555.539 121.152C555.93 121.895 556.574 122.266 557.473 122.266C558.391 122.266 559.025 121.904 559.377 121.182C559.748 120.439 559.934 119.58 559.934 118.604V111.221H570.568V118.896C570.568 121.318 570.021 123.398 568.928 125.137C567.854 126.855 566.369 128.174 564.475 129.092C562.58 130.01 560.412 130.469 557.971 130.469ZM586.535 130.469C583.41 130.469 580.92 129.883 579.064 128.711C577.209 127.539 575.881 125.85 575.08 123.643C574.279 121.436 573.879 118.779 573.879 115.674V98.0078C573.879 93.9258 575.051 90.8398 577.395 88.75C579.738 86.6406 582.961 85.5859 587.062 85.5859C595.5 85.5859 599.719 89.7266 599.719 98.0078V101.201C599.719 105.068 599.68 107.666 599.602 108.994H584.367V117.49C584.367 118.271 584.416 119.043 584.514 119.805C584.611 120.547 584.826 121.162 585.158 121.65C585.51 122.139 586.066 122.383 586.828 122.383C587.922 122.383 588.605 121.914 588.879 120.977C589.152 120.02 589.289 118.779 589.289 117.256V113.037H599.719V115.527C599.719 118.809 599.309 121.562 598.488 123.789C597.688 125.996 596.32 127.666 594.387 128.799C592.473 129.912 589.855 130.469 586.535 130.469ZM584.309 103.779H589.289V97.8613C589.289 96.2793 589.094 95.1465 588.703 94.4629C588.312 93.7598 587.727 93.4082 586.945 93.4082C586.105 93.4082 585.451 93.7402 584.982 94.4043C584.533 95.0684 584.309 96.2207 584.309 97.8613V103.779ZM617.766 130V78.4375H631.945C635.656 78.4375 638.449 79.4727 640.324 81.543C642.199 83.5938 643.137 86.6016 643.137 90.5664V114.707C643.137 119.59 642.277 123.359 640.559 126.016C638.859 128.672 635.871 130 631.594 130H617.766ZM628.137 120.889H629.924C631.818 120.889 632.766 119.971 632.766 118.135V91.5332C632.766 89.8145 632.531 88.7109 632.062 88.2227C631.613 87.7148 630.686 87.4609 629.279 87.4609H628.137V120.889ZM659.484 130.469C656.359 130.469 653.869 129.883 652.014 128.711C650.158 127.539 648.83 125.85 648.029 123.643C647.229 121.436 646.828 118.779 646.828 115.674V98.0078C646.828 93.9258 648 90.8398 650.344 88.75C652.688 86.6406 655.91 85.5859 660.012 85.5859C668.449 85.5859 672.668 89.7266 672.668 98.0078V101.201C672.668 105.068 672.629 107.666 672.551 108.994H657.316V117.49C657.316 118.271 657.365 119.043 657.463 119.805C657.561 120.547 657.775 121.162 658.107 121.65C658.459 122.139 659.016 122.383 659.777 122.383C660.871 122.383 661.555 121.914 661.828 120.977C662.102 120.02 662.238 118.779 662.238 117.256V113.037H672.668V115.527C672.668 118.809 672.258 121.562 671.438 123.789C670.637 125.996 669.27 127.666 667.336 128.799C665.422 129.912 662.805 130.469 659.484 130.469ZM657.258 103.779H662.238V97.8613C662.238 96.2793 662.043 95.1465 661.652 94.4629C661.262 93.7598 660.676 93.4082 659.895 93.4082C659.055 93.4082 658.4 93.7402 657.932 94.4043C657.482 95.0684 657.258 96.2207 657.258 97.8613V103.779ZM688.518 130.469C679.846 130.469 675.51 126.074 675.51 117.285V113.799H686.057V118.955C686.057 119.951 686.252 120.732 686.643 121.299C687.033 121.865 687.658 122.148 688.518 122.148C690.041 122.148 690.803 121.006 690.803 118.721C690.803 116.807 690.402 115.381 689.602 114.443C688.801 113.486 687.824 112.568 686.672 111.689L681.076 107.383C679.318 106.016 677.98 104.57 677.062 103.047C676.145 101.523 675.686 99.4043 675.686 96.6895C675.686 94.1699 676.281 92.0898 677.473 90.4492C678.684 88.8086 680.275 87.5879 682.248 86.7871C684.24 85.9863 686.389 85.5859 688.693 85.5859C697.209 85.5859 701.467 89.834 701.467 98.3301V99.1504H690.627V97.4805C690.627 96.6016 690.471 95.752 690.158 94.9316C689.865 94.1113 689.279 93.7012 688.4 93.7012C686.916 93.7012 686.174 94.4824 686.174 96.0449C686.174 97.627 686.799 98.8672 688.049 99.7656L694.553 104.512C696.584 105.977 698.283 107.715 699.65 109.727C701.037 111.738 701.73 114.414 701.73 117.754C701.73 121.895 700.549 125.049 698.186 127.217C695.842 129.385 692.619 130.469 688.518 130.469ZM704.895 83.3594V74.6289H715.383V83.3594H704.895ZM704.895 130V86.0547H715.383V130H704.895ZM731.379 137.617C729.348 137.617 727.6 137.51 726.135 137.295C724.689 137.1 723.391 136.738 722.238 136.211C721.086 135.684 719.934 134.941 718.781 133.984L722.326 127.92C724.885 129.443 727.443 130.205 730.002 130.205C731.682 130.205 732.932 129.668 733.752 128.594C734.572 127.52 734.982 126.123 734.982 124.404V120.098C734.143 123.105 731.906 124.609 728.273 124.609C726.184 124.609 724.494 124.111 723.205 123.115C721.916 122.119 720.979 120.771 720.393 119.072C719.807 117.373 719.514 115.479 719.514 113.389V97.5977C719.514 95.2344 719.768 93.1543 720.275 91.3574C720.783 89.541 721.672 88.125 722.941 87.1094C724.211 86.0938 725.988 85.5859 728.273 85.5859C730.207 85.5859 731.711 86.0742 732.785 87.0508C733.879 88.0273 734.611 89.3457 734.982 91.0059V86.0547H745.676V123.73C745.676 128.711 744.523 132.266 742.219 134.395C739.934 136.543 736.32 137.617 731.379 137.617ZM732.521 116.699C734.162 116.699 734.982 115.215 734.982 112.246V97.3047C734.982 96.5039 734.748 95.6836 734.279 94.8438C733.83 94.0039 733.205 93.584 732.404 93.584C731.389 93.584 730.754 93.9648 730.5 94.7266C730.246 95.4688 730.119 96.3281 730.119 97.3047V112.246C730.119 113.301 730.246 114.307 730.5 115.264C730.773 116.221 731.447 116.699 732.521 116.699ZM749.777 130V86.0547H760.266V91.6504C760.656 89.9707 761.379 88.5449 762.434 87.373C763.508 86.1816 764.992 85.5859 766.887 85.5859C769.934 85.5859 772.141 86.5234 773.508 88.3984C774.895 90.2734 775.588 92.8418 775.588 96.1035V130H765.246V97.1875C765.246 96.3281 765.07 95.5371 764.719 94.8145C764.367 94.0723 763.762 93.7012 762.902 93.7012C762.102 93.7012 761.506 93.9844 761.115 94.5508C760.744 95.0977 760.51 95.791 760.412 96.6309C760.314 97.4512 760.266 98.2715 760.266 99.0918V130H749.777ZM792.023 130.469C788.898 130.469 786.408 129.883 784.553 128.711C782.697 127.539 781.369 125.85 780.568 123.643C779.768 121.436 779.367 118.779 779.367 115.674V98.0078C779.367 93.9258 780.539 90.8398 782.883 88.75C785.227 86.6406 788.449 85.5859 792.551 85.5859C800.988 85.5859 805.207 89.7266 805.207 98.0078V101.201C805.207 105.068 805.168 107.666 805.09 108.994H789.855V117.49C789.855 118.271 789.904 119.043 790.002 119.805C790.1 120.547 790.314 121.162 790.646 121.65C790.998 122.139 791.555 122.383 792.316 122.383C793.41 122.383 794.094 121.914 794.367 120.977C794.641 120.02 794.777 118.779 794.777 117.256V113.037H805.207V115.527C805.207 118.809 804.797 121.562 803.977 123.789C803.176 125.996 801.809 127.666 799.875 128.799C797.961 129.912 795.344 130.469 792.023 130.469ZM789.797 103.779H794.777V97.8613C794.777 96.2793 794.582 95.1465 794.191 94.4629C793.801 93.7598 793.215 93.4082 792.434 93.4082C791.594 93.4082 790.939 93.7402 790.471 94.4043C790.021 95.0684 789.797 96.2207 789.797 97.8613V103.779ZM809.016 130V86.0547H819.68V90.9473C820.188 89.248 821.086 87.9199 822.375 86.9629C823.664 86.0059 825.285 85.5273 827.238 85.5273V94.2871C826.379 94.2871 825.354 94.3848 824.162 94.5801C822.971 94.7559 821.926 95.0098 821.027 95.3418C820.129 95.6543 819.68 96.0059 819.68 96.3965V130H809.016ZM853.078 130.615C849.875 130.615 847.355 129.375 845.52 126.895C843.703 124.414 842.795 120.996 842.795 116.641C842.795 113.535 843.068 110.957 843.615 108.906C844.182 106.855 844.963 105.146 845.959 103.779C846.955 102.412 848.098 101.221 849.387 100.205L849.152 99.6191C848.332 97.5879 847.609 95.6543 846.984 93.8184C846.379 91.9629 846.076 90.0586 846.076 88.1055C846.076 86.1328 846.496 84.3848 847.336 82.8613C848.176 81.3379 849.338 80.1465 850.822 79.2871C852.326 78.4082 854.045 77.9688 855.979 77.9688C857.893 77.9688 859.631 78.3887 861.193 79.2285C862.775 80.0488 864.035 81.2891 864.973 82.9492C865.91 84.6094 866.379 86.709 866.379 89.248C866.379 92.002 865.861 94.3066 864.826 96.1621C863.811 98.0176 862.277 99.8047 860.227 101.523L863.039 108.613C864.191 105.703 865.852 103.447 868.02 101.846L872.092 108.203C869.826 110.02 867.932 112.979 866.408 117.08L871.564 130H861.604L860.461 127.217C859.699 128.154 858.674 128.955 857.385 129.619C856.115 130.283 854.68 130.615 853.078 130.615ZM855.275 87.1973C855.275 87.7051 855.402 88.457 855.656 89.4531C855.91 90.4297 856.506 92.1289 857.443 94.5508C857.814 94.1602 858.146 93.5449 858.439 92.7051C858.732 91.8652 858.879 90.7129 858.879 89.248C858.879 87.7441 858.693 86.6895 858.322 86.084C857.971 85.4785 857.502 85.1758 856.916 85.1758C856.35 85.1758 855.93 85.3906 855.656 85.8203C855.402 86.2305 855.275 86.6895 855.275 87.1973ZM851.76 117.9C851.76 121.377 852.746 123.115 854.719 123.115C855.52 123.115 856.164 122.822 856.652 122.236C857.141 121.631 857.473 121.006 857.648 120.361L852.727 108.379C852.082 109.746 851.76 112.139 851.76 115.557V117.9Z" fill="#072F38"/>
<path d="M467.316 220V168.438H483.02L487.355 199.873L491.662 168.438H507.512V220H498.078V182.852L492.16 220H482.902L476.633 182.852V220H467.316ZM524.211 220.469C521.086 220.469 518.596 219.883 516.74 218.711C514.885 217.539 513.557 215.85 512.756 213.643C511.955 211.436 511.555 208.779 511.555 205.674V188.008C511.555 183.926 512.727 180.84 515.07 178.75C517.414 176.641 520.637 175.586 524.738 175.586C533.176 175.586 537.395 179.727 537.395 188.008V191.201C537.395 195.068 537.355 197.666 537.277 198.994H522.043V207.49C522.043 208.271 522.092 209.043 522.189 209.805C522.287 210.547 522.502 211.162 522.834 211.65C523.186 212.139 523.742 212.383 524.504 212.383C525.598 212.383 526.281 211.914 526.555 210.977C526.828 210.02 526.965 208.779 526.965 207.256V203.037H537.395V205.527C537.395 208.809 536.984 211.562 536.164 213.789C535.363 215.996 533.996 217.666 532.062 218.799C530.148 219.912 527.531 220.469 524.211 220.469ZM521.984 193.779H526.965V187.861C526.965 186.279 526.77 185.146 526.379 184.463C525.988 183.76 525.402 183.408 524.621 183.408C523.781 183.408 523.127 183.74 522.658 184.404C522.209 185.068 521.984 186.221 521.984 187.861V193.779ZM541.203 220V176.055H551.691V181.65C552.082 179.971 552.805 178.545 553.859 177.373C554.934 176.182 556.418 175.586 558.312 175.586C561.359 175.586 563.566 176.523 564.934 178.398C566.32 180.273 567.014 182.842 567.014 186.104V220H556.672V187.188C556.672 186.328 556.496 185.537 556.145 184.814C555.793 184.072 555.188 183.701 554.328 183.701C553.527 183.701 552.932 183.984 552.541 184.551C552.17 185.098 551.936 185.791 551.838 186.631C551.74 187.451 551.691 188.271 551.691 189.092V220H541.203ZM580.168 220.469C577.336 220.469 575.422 219.873 574.426 218.682C573.449 217.471 572.961 215.625 572.961 213.145V185.752H570.002V177.754H572.961V168.438H583.156V177.754H586.115V185.752H583.156V210.684C583.156 211.406 583.273 211.914 583.508 212.207C583.742 212.5 584.191 212.646 584.855 212.646C585.324 212.646 585.744 212.607 586.115 212.529V219.678C585.881 219.756 585.148 219.902 583.918 220.117C582.688 220.352 581.438 220.469 580.168 220.469ZM602.258 220.469C593.508 220.469 589.133 215.928 589.133 206.846V189.209C589.133 185.068 590.295 181.768 592.619 179.307C594.943 176.826 598.156 175.586 602.258 175.586C606.379 175.586 609.602 176.826 611.926 179.307C614.25 181.768 615.412 185.068 615.412 189.209V206.846C615.412 215.928 611.027 220.469 602.258 220.469ZM602.258 212.383C603.137 212.383 603.762 212.07 604.133 211.445C604.523 210.801 604.719 209.99 604.719 209.014V187.539C604.719 184.98 603.898 183.701 602.258 183.701C600.617 183.701 599.797 184.98 599.797 187.539V209.014C599.797 209.99 599.982 210.801 600.354 211.445C600.744 212.07 601.379 212.383 602.258 212.383ZM619.309 220V176.055H629.973V180.947C630.48 179.248 631.379 177.92 632.668 176.963C633.957 176.006 635.578 175.527 637.531 175.527V184.287C636.672 184.287 635.646 184.385 634.455 184.58C633.264 184.756 632.219 185.01 631.32 185.342C630.422 185.654 629.973 186.006 629.973 186.396V220H619.309Z" fill="#072F38"/>
<path d="M47 354.137V194H207.137C207.137 282.432 135.432 354.137 47 354.137Z" fill="#E68C3A"/>
<path d="M47 177.137V17H207.137C207.137 105.432 135.432 177.137 47 177.137Z" fill="#E68C3A"/>
<path d="M47 531V370.863H207.137C207.137 459.295 135.432 531 47 531Z" fill="#E68C3A"/>
<path d="M228.227 531V370.863H388.363C388.436 459.295 316.731 531 228.227 531Z" fill="#E68C3A"/>
<path d="M304.95 348.319C345.957 348.319 379.2 315.076 379.2 274.068C379.2 233.061 345.957 199.818 304.95 199.818C263.942 199.818 230.699 233.061 230.699 274.068C230.699 315.076 263.942 348.319 304.95 348.319Z" fill="#9CC4BC"/>
</svg>
