<svg width="218" height="30" viewBox="0 0 218 30" fill="none" xmlns="http://www.w3.org/2000/svg">
<path fill-rule="evenodd" clip-rule="evenodd" d="M58.0117 17.6669C48.6609 20.378 37.8647 23.076 27.4789 23.7497C18.6019 24.3247 10.0275 23.4316 3.00929 19.6317C2.01996 19.0966 0.781067 19.4645 0.246034 20.4546C-0.289816 21.4439 0.078832 22.6828 1.06816 23.2187C8.72419 27.3628 18.0595 28.4467 27.7423 27.8187C38.3149 27.1336 49.306 24.4176 58.8444 21.6674C59.9512 23.9095 62.2431 25.9999 66.2803 27.5422C72.4813 29.9115 80.948 29.8821 89.8674 28.547C102.804 26.6116 116.719 21.9961 125.667 18.7166C126.034 18.5828 126.58 18.37 127.249 18.0894C127.453 18.5396 127.681 18.9833 127.934 19.4188C130.128 23.2146 134.01 26.2837 137.966 27.3799C163.054 34.3304 192.334 26.0023 216.174 19.2247C217.25 18.9172 217.878 17.7884 217.577 16.7061C217.267 15.6238 216.141 14.995 215.056 15.3025C191.885 21.8909 163.437 30.2035 139.051 23.4495C136.049 22.6176 133.129 20.2589 131.465 17.3782C131.278 17.0568 131.115 16.7281 130.96 16.3946C134.247 14.7658 138.113 12.4952 140.192 10.0647C142.329 7.57305 142.859 4.91338 141 2.40133C139.401 0.253854 136.979 0.0711562 134.459 1.18445C131.743 2.37686 128.945 5.16454 128.04 6.47276C126.343 8.9163 125.805 11.567 126.115 14.1517C125.316 14.4893 124.667 14.7405 124.266 14.8873C115.515 18.0943 101.913 22.6209 89.2639 24.5139C81.125 25.7324 73.3939 25.8947 67.7353 23.7333C65.3219 22.8109 63.7274 21.7343 62.8621 20.4848C64.5699 19.9742 66.2167 19.4718 67.79 18.9923C70.9015 18.0437 77.3798 16.4737 82.0083 13.6754C85.6891 11.4504 88.1849 8.42372 88.0397 4.62954C87.9655 2.68026 86.8375 1.37935 85.0423 0.650208C82.3598 -0.438618 77.7207 0.0882487 75.9933 0.455269C70.7538 1.56612 63.7609 6.16449 60.3011 11.346C58.9203 13.4135 58.099 15.5765 58.0117 17.6669ZM62.3156 16.3929C63.7959 15.9476 65.2265 15.5104 66.6008 15.0912C69.5052 14.2055 75.5765 12.7986 79.8983 10.1854C82.1869 8.80211 84.0555 7.14484 83.9649 4.78531C83.9576 4.6018 83.7757 4.54961 83.615 4.47458C83.3663 4.35958 83.0816 4.28044 82.7782 4.21846C80.7253 3.79924 77.9678 4.20458 76.839 4.44436C72.4429 5.37659 66.5951 9.26294 63.6923 13.6109C63.079 14.5293 62.5905 15.4648 62.3156 16.3929ZM130.144 12.2742C132.061 11.2881 134.067 10.0957 135.65 8.79805C136.49 8.10886 137.199 7.40013 137.648 6.66446C138.023 6.05603 138.17 5.43287 137.721 4.83096C137.542 4.58709 137.273 4.58223 136.995 4.6279C136.702 4.67684 136.4 4.78121 136.098 4.91578C134.108 5.79174 132.053 7.83808 131.392 8.79805C130.617 9.91134 130.234 11.0891 130.144 12.2742Z" fill="#EBFACF"/>
</svg>
